<svg width="72" height="33" viewBox="0 0 72 33" fill="none" xmlns="http://www.w3.org/2000/svg">
<g clip-path="url(#clip0_811_441)">
<path d="M22.6256 0.331928C22.6256 0.317261 16.481 0.331928 16.481 0.331928C7.38552 0.331928 0.0119629 7.60893 0.0119629 16.5853C0.0119629 25.5616 7.38552 32.8386 16.481 32.8386L28.0343 32.8291C30.9368 32.8291 33.2898 30.525 33.2898 27.6604L33.2959 17.7471L41.2814 30.1775C42.3614 31.7906 44.2153 32.8547 46.321 32.8547C49.6545 32.8547 52.3571 30.1877 52.3571 26.8977L52.3553 17.747L60.3409 30.1774C61.4208 31.7905 63.2747 32.8546 65.3804 32.8546C68.714 32.8546 71.4165 30.1876 71.4165 26.8976L71.4147 0.317261H67.3059V26.8979C67.3059 27.9473 66.4439 28.798 65.3805 28.798C64.716 28.798 64.13 28.4659 63.7841 27.9603L49.5706 5.86518C49.4826 5.73874 49.3558 5.64343 49.2089 5.59318C49.062 5.54294 48.9027 5.54039 48.7542 5.58592C48.6057 5.63145 48.4759 5.72266 48.3838 5.84622C48.2916 5.96978 48.2419 6.1192 48.2419 6.27264L48.2464 26.898C48.2464 27.9474 47.3844 28.7981 46.3211 28.7981C45.6566 28.7981 45.0707 28.466 44.7247 27.9604L30.5112 5.86518C30.4231 5.73876 30.2964 5.64348 30.1495 5.59325C30.0026 5.54302 29.8432 5.54048 29.6948 5.586C29.5463 5.63153 29.4165 5.72272 29.3243 5.84626C29.2321 5.96981 29.1824 6.11921 29.1824 6.27264L29.1792 27.6606C29.1792 28.2847 28.6668 28.7903 28.0344 28.7903L16.4811 28.7818C9.65582 28.7817 4.12273 23.321 4.12273 16.5853C4.12273 9.84951 9.65582 4.38876 16.481 4.38876L22.6256 4.38429V0.331928Z" fill="#000341"/>
<path d="M22.4714 23.572C22.6267 23.572 22.7756 23.5111 22.8854 23.4028C22.9951 23.2944 23.0568 23.1475 23.0568 22.9942L23.0584 6.27237C23.0583 2.98261 25.7608 0.31543 29.0943 0.31543C31.2075 0.31543 33.0673 1.38729 34.1456 3.01017L42.1034 15.3302L42.1177 6.27247C42.1177 2.98261 44.8201 0.31543 48.1537 0.31543C50.2669 0.31543 52.1266 1.38729 53.205 3.01017L61.1627 15.3302V0.317198H65.2998L65.2924 26.8979C65.2924 27.0487 65.2443 27.1958 65.1548 27.3182C65.0654 27.4405 64.9393 27.5321 64.7942 27.5798C64.6492 27.6275 64.4926 27.6289 64.3467 27.584C64.2007 27.539 64.0729 27.4498 63.9811 27.3291L49.7502 5.21008C49.4042 4.70473 48.8183 4.37237 48.1537 4.37237C47.0904 4.37237 46.2284 5.22308 46.2284 6.27247L46.233 26.8979C46.2329 27.0487 46.1848 27.1958 46.0953 27.3181C46.0059 27.4405 45.8798 27.532 45.7347 27.5797C45.5897 27.6274 45.4331 27.6289 45.2872 27.5839C45.1413 27.5389 45.0133 27.4498 44.9216 27.3291L30.6908 5.21008C30.3448 4.70473 29.759 4.37237 29.0943 4.37237C28.0311 4.37237 27.1691 5.22308 27.1691 6.27247L27.1777 27.0613C27.1777 27.2145 27.116 27.3615 27.0063 27.4698C26.8965 27.5782 26.7476 27.639 26.5923 27.639L15.6644 27.6368C9.50015 27.6368 4.50293 22.6688 4.50293 16.5853C4.50293 10.5018 9.50015 5.53359 15.6644 5.53359C15.6644 5.53359 21.8091 5.50998 21.8091 5.53359V9.63141L15.6644 9.62683C11.7705 9.62683 8.6137 12.7423 8.6137 16.5853C8.6137 20.4282 11.7705 23.5799 15.6644 23.5799L22.4714 23.572Z" fill="#000341"/>
</g>
<defs>
<clipPath id="clip0_811_441">
<rect width="71.4281" height="32.5395" fill="white" transform="translate(0 0.31543)"/>
</clipPath>
</defs>
</svg>
