<svg width="188" height="31" viewBox="0 0 188 31" fill="none" xmlns="http://www.w3.org/2000/svg">
<path fill-rule="evenodd" clip-rule="evenodd" d="M0.427979 29.8462L6.94542 0.505981H18.5804L19.1116 16.8965L26.9438 0.505981H38.6065L32.0624 29.8462H23.6148L27.111 14.071L19.2521 29.8462H13.1818L12.8741 14.071L8.95857 29.8462H0.427979ZM39.6146 5.28813H47.4735L48.5359 0.505981H40.6483L39.6146 5.28813ZM42.0195 29.8749L34.1043 29.8462L38.9429 8.11357H46.8581L42.0195 29.8749ZM72.0038 8.11357H79.0802L78.4649 10.7985C79.4443 9.59548 80.6185 8.84068 82.1015 8.33713C83.2918 7.94065 84.539 7.74214 85.7935 7.74948L83.9752 14.8258C83.5281 14.8258 78.0465 13.7623 76.3399 22.1258L74.578 29.8728H67.1088L72.0038 8.11357Z" fill="#000341"/>
<path fill-rule="evenodd" clip-rule="evenodd" d="M67.8651 21.8192C67.8651 21.9863 65.3761 30.7128 54.4395 30.4903C39.7821 30.1826 43.587 6.68808 60.2287 7.52698C69.6823 8.00179 69.2075 15.8617 69.1234 16.1981H60.9559C61.0676 15.8904 61.3476 12.6455 58.7458 12.702C53.9072 12.8425 50.4664 24.8405 55.8085 24.9533C58.2699 25.0374 59.4175 22.1843 59.6411 21.8213H67.8651V21.8192ZM138.042 30.5744C122.127 29.9026 126.91 6.46345 143.245 7.247C158.6 8.00179 154.236 31.2174 138.042 30.5744ZM142.712 12.3645C137.427 11.302 133.482 24.0005 138.519 25.0353C144.111 26.2106 147.861 13.4003 142.712 12.3645Z" fill="#000341"/>
<path fill-rule="evenodd" clip-rule="evenodd" d="M167.859 4.89759C165.675 4.89759 165.258 5.73649 164.894 7.38661L164.752 8.11373H169.368L170.516 2.8557H177.731L176.612 8.11373H180.332L179.243 13.1205H175.521L173.479 22.6582C173.396 23.1894 173.2 23.6643 173.396 24.2519C173.703 25.1185 176.808 24.7565 176.808 24.7565L175.606 29.7356C175.606 29.7356 169.284 30.4628 167.157 28.9798C166.207 28.3368 165.172 26.9943 165.816 24.1135L168.248 13.1493L163.913 13.1216L160.25 29.8474H152.473L156.11 13.1216H152.109L153.228 8.11479H157.116C157.814 5.3181 158.43 3.41567 160.164 1.96144C162.542 0.0313289 168.724 0.78613 168.724 0.78613L167.859 4.89759ZM98.0448 22.407L112.812 22.3793C112.812 22.3793 111.553 25.6519 116.197 25.6806C119.413 25.6806 120.672 22.0163 116.337 21.2615C114.351 20.8974 106.66 19.6103 107.527 13.6805C108.255 8.81423 113.316 7.10769 118.856 7.19179C130.184 7.33125 128.059 13.9892 128.197 14.4364H120.645C120.645 14.4364 121.456 11.6397 118.044 11.6397C114.94 11.6397 114.183 14.4364 117.763 15.1912C122.128 16.1429 127.135 16.3665 127.413 21.9886C127.496 23.5557 126.575 30.8822 115.161 30.6597C104.701 30.4361 103.975 25.5135 104.254 23.2203C102.351 27.22 97.5956 30.7725 91.2474 30.549C75.3328 30.0454 80.1714 6.46574 96.4778 7.27802C103.891 7.64105 106.716 13.2632 105.82 18.8012C105.68 19.7806 105.597 19.9201 105.316 20.0042L98.0448 22.407ZM95.8901 12.337C90.6587 11.3022 86.7442 23.9442 91.7499 25.0078C97.29 26.1554 101.01 13.3728 95.8901 12.337ZM184.696 8.08605C188.473 8.08605 188.473 13.7082 184.696 13.7082C180.92 13.7082 180.92 8.08605 184.696 8.08605ZM184.696 8.5896C181.536 8.5896 181.536 13.1769 184.696 13.1769C187.884 13.1769 187.884 8.5896 184.696 8.5896ZM185.2 11.2181L185.759 12.337H185.087L184.64 11.2181H184.247L184.081 12.4211H183.492L183.968 9.4285H185.338C185.338 9.4285 186.093 9.62438 186.037 10.3515C185.955 11.2181 185.256 11.2181 185.2 11.2181ZM185.058 9.82028H184.502L184.36 10.7997H184.919C184.919 10.7997 185.478 10.8838 185.534 10.3238C185.534 9.82028 185.058 9.82028 185.058 9.82028Z" fill="#000341"/>
</svg>
