<svg width="94" height="53" viewBox="0 0 94 53" fill="none" xmlns="http://www.w3.org/2000/svg">
<path d="M89.5518 1.26041C88.2598 1.89839 87.0833 2.46194 86.2955 2.81284C86.0119 2.94043 85.5077 3.16373 85.1926 3.31259C84.8774 3.45082 84.4783 3.63158 84.2997 3.70601C84.1317 3.79108 83.6064 4.00374 83.1443 4.19513C82.6821 4.3759 82.1674 4.58856 81.9888 4.67362C81.5581 4.85438 80.9909 5.07768 79.9405 5.4711C79.4468 5.65186 78.9111 5.87516 78.7325 5.94959C78.5644 6.02402 78.1338 6.19415 77.7871 6.31111C77.4405 6.42808 76.8943 6.6301 76.5791 6.74707C76.264 6.87466 75.8649 7.02353 75.6863 7.06606C75.5182 7.11923 75.0875 7.26809 74.7409 7.38505C74.3943 7.51265 73.9741 7.66151 73.7955 7.70404C73.6275 7.75721 73.1548 7.90607 72.7451 8.05493C72.3459 8.19316 71.7262 8.39519 71.3796 8.49089C71.0329 8.59722 70.5602 8.74608 70.3291 8.83115C70.0875 8.91621 69.8354 8.98001 69.7619 8.98001C69.6884 8.98001 69.4783 9.04381 69.2997 9.12887C69.1107 9.21394 68.7535 9.3309 68.4909 9.40533C67.8081 9.57546 67.43 9.69243 67.0728 9.82002C66.7577 9.92635 65.2031 10.3942 64.0266 10.7345C63.68 10.8302 63.2073 10.979 62.9762 11.0535C62.7451 11.1279 62.2724 11.2768 61.9258 11.3724C61.5792 11.4681 61.1275 11.5957 60.9279 11.6595C60.7283 11.7233 60.0666 11.9147 59.4573 12.0849C58.8481 12.255 58.0918 12.4677 57.7766 12.5527C57.4615 12.6378 57.0308 12.7547 56.8313 12.7973C56.1905 12.9568 54.2787 13.4459 53.7325 13.5948C53.4489 13.6798 52.8292 13.8181 52.367 13.9137C51.9048 14.0094 51.3166 14.1477 51.054 14.2115C50.3292 14.3816 49.1842 14.6049 48.3964 14.7219C47.9972 14.775 47.6401 14.8495 47.5876 14.8814C47.4825 14.9452 45.5498 15.2216 44.1737 15.3705C43.659 15.4236 43.1548 15.4981 43.0708 15.53C42.9132 15.5938 39.4994 15.8383 36.9678 15.9553C35.3502 16.0404 33.2494 15.8171 32.283 15.4555C31.096 15.0302 30.4447 14.371 30.2977 13.4884C30.2241 12.9993 30.4132 11.9147 30.6338 11.5638C30.7178 11.4362 30.7809 11.2768 30.7809 11.2236C30.7809 11.0854 31.6317 9.83066 32.2199 9.08634C32.7452 8.42709 34.6044 6.49187 35.2346 5.93896C35.4657 5.73693 35.6128 5.54553 35.5708 5.503C35.4973 5.42857 34.804 5.64123 34.0897 5.94959C33.9216 6.02402 33.1653 6.31111 32.409 6.58757C31.6632 6.8534 30.9699 7.10859 30.8859 7.14049C30.0141 7.47012 28.596 7.95924 28.0498 8.14C27.6716 8.2676 27.1989 8.42709 26.9994 8.50152C26.7998 8.57595 26.3691 8.72482 26.054 8.83115C25.7389 8.92685 25.3082 9.06507 25.1086 9.15014C24.909 9.22457 24.4784 9.3628 24.1632 9.46913C23.8481 9.56483 23.4174 9.70306 23.2179 9.77749C23.0183 9.85192 22.5666 9.99015 22.22 10.0965C21.8733 10.1922 21.4216 10.341 21.2221 10.4155C21.0225 10.4899 20.5708 10.6281 20.2242 10.7345C19.8775 10.8302 19.4048 10.979 19.1737 11.0535C18.9427 11.1173 18.47 11.2661 18.1233 11.3724C17.7767 11.4681 17.304 11.617 17.0729 11.6914C16.8418 11.7659 16.3691 11.9147 16.0225 12.0104C15.6758 12.1061 15.1822 12.2444 14.9195 12.3188C14.6569 12.4039 14.1422 12.5421 13.7641 12.6484C13.3859 12.7547 12.8712 12.893 12.6086 12.978C12.346 13.0525 11.8523 13.1907 11.5057 13.2864C11.159 13.3821 10.6443 13.5203 10.3502 13.6054C9.783 13.7649 9.10023 13.935 8.51199 14.0839C7.79771 14.2434 5.92796 14.7325 5.41326 14.8814C5.12964 14.9664 4.5099 15.1047 4.04771 15.211C3.58553 15.3067 2.99729 15.4449 2.73469 15.5193C2.47208 15.5938 2.04141 15.6895 1.7683 15.732C1.48469 15.7639 1.2641 15.8383 1.2641 15.8915C1.2641 16.0297 1.87334 16.1042 4.46788 16.2637C5.80191 16.3381 6.95737 16.4338 7.04141 16.4657C7.12544 16.4976 7.69267 16.572 8.30191 16.6358C9.73048 16.7634 11.8523 17.0399 11.9574 17.1037C12.0099 17.1356 12.3985 17.21 12.8292 17.2738C13.9111 17.4227 15.1086 17.646 15.6023 17.7842C15.8334 17.848 16.4006 17.9756 16.8628 18.0713C17.6716 18.2308 18.1023 18.3477 19.3208 18.6986C19.6254 18.7943 19.9405 18.8688 20.0246 18.8688C20.0981 18.8688 20.3187 18.9326 20.5078 19.0176C20.6969 19.1027 21.3481 19.326 21.9574 19.5174C22.9763 19.8364 24.0897 20.2511 25.0036 20.6445C26.4847 21.2718 28.9531 22.5478 29.3208 22.8668C29.4048 22.9519 29.5099 23.0156 29.5519 23.0156C29.6569 23.0156 31.4636 24.2597 32.3775 24.9509C34.4994 26.5671 36.3586 28.5236 37.6926 30.5439C38.0498 31.0861 38.3439 31.5965 38.3439 31.6816C38.3439 31.756 38.3859 31.8517 38.4384 31.8836C38.4909 31.9262 38.638 32.1601 38.7536 32.4259C38.8796 32.6917 39.0792 33.1277 39.2052 33.4148C39.3313 33.6912 39.5939 34.3718 39.7725 34.9247L40.0981 35.9348L46.222 35.9667L52.3355 35.988L52.2724 35.4882C52.2304 35.2011 52.1359 34.7652 52.0519 34.4994C51.6947 33.3297 51.5477 32.0112 51.5477 29.9271C51.5372 27.7686 51.6422 27.0243 52.1254 25.5144C52.325 24.8871 53.1338 23.122 53.2598 23.0156C53.3019 22.9838 53.3964 22.8455 53.4699 22.6967C53.9741 21.7184 55.6233 20.0916 57.0939 19.1133C57.9762 18.5179 59.9825 17.4652 61.2955 16.9123C61.8208 16.689 62.2829 16.4657 62.3355 16.4125C62.3985 16.3594 62.5035 16.3168 62.5876 16.3168C62.6716 16.3168 62.8817 16.253 63.0602 16.168C63.2493 16.0829 63.7955 15.8596 64.2892 15.6788C64.7829 15.4981 65.3397 15.2748 65.5287 15.1897C65.7178 15.1047 65.9174 15.0409 65.9804 15.0409C66.0434 15.0409 66.243 14.9771 66.4216 14.9026C66.8312 14.7325 67.2409 14.573 68.2808 14.2327C68.7115 14.0945 69.1632 13.9244 69.2787 13.8712C69.5203 13.7649 73.8375 12.2975 74.3207 12.1699C74.4993 12.1168 74.972 11.9573 75.3712 11.8084C75.7808 11.6595 76.1695 11.5319 76.243 11.5319C76.327 11.5319 76.5371 11.4681 76.7157 11.3937C76.9048 11.3087 78.1863 10.8727 79.5728 10.4261C80.9594 9.96889 82.2409 9.53293 82.409 9.4585C82.5875 9.38407 83.0287 9.22457 83.4069 9.09697C85.2976 8.48026 85.4447 8.41646 85.6548 8.03367C85.7178 7.90607 86.5476 6.7577 87.5035 5.4711C88.4594 4.1845 89.2892 3.03613 89.3522 2.91917C89.4153 2.79157 89.5623 2.58954 89.6779 2.46194C89.93 2.18549 90.8648 0.835086 90.8648 0.750022C90.8648 0.633058 90.7073 0.696857 89.5518 1.26041ZM49.3733 19.8895C49.3733 19.9214 48.9636 20.368 48.4489 20.8678C47.9447 21.3782 47.3145 22.0799 47.0519 22.4308C45.8229 24.079 44.825 26.078 44.6569 27.2689C44.6149 27.5772 44.5414 27.758 44.4258 27.7793C44.3313 27.8005 43.9111 27.3752 43.3334 26.6841C41.7472 24.7595 39.0267 22.3032 37.6821 21.5696C37.451 21.4526 37.262 21.3037 37.262 21.2506C37.2515 21.1974 38.2073 21.123 39.5204 21.0911C40.7704 21.0485 41.8418 20.9847 41.8943 20.9528C41.9468 20.9209 42.5246 20.8465 43.1863 20.7827C44.4258 20.6657 45.1506 20.5488 46.3271 20.2936C46.7052 20.2085 47.1254 20.1447 47.2724 20.1341C47.4195 20.1341 47.7451 20.0703 48.0077 19.9959C48.5014 19.847 49.3733 19.7832 49.3733 19.8895ZM14.8985 36.2963C13.5225 36.6791 12.7662 37.2533 11.3061 39.0503C10.1822 40.4326 9.16325 41.6767 7.15695 44.1223C4.74099 47.0464 3.72208 48.3011 3.31242 48.8008C2.69267 49.5664 1.2641 51.3209 0.875447 51.7887C0.686371 52.0226 0.528809 52.2672 0.528809 52.331C0.528809 52.4373 1.23259 52.4692 3.69057 52.4692H6.85233L7.12544 52.1715C7.283 52.012 8.07082 51.0657 8.87964 50.0768C9.68846 49.0773 10.3712 48.2479 10.4027 48.216C10.4343 48.1841 10.6443 47.9183 10.8754 47.6312C11.1065 47.3335 11.5582 46.7912 11.8733 46.4084C12.199 46.0256 12.6191 45.5046 12.8187 45.2387C13.0183 44.9729 13.2389 44.7071 13.3019 44.6539C13.3649 44.5901 13.9847 43.8564 14.678 43.0058C16.2011 41.1557 16.3796 40.9855 17.1254 40.5921C17.6716 40.305 17.7767 40.2944 19.3628 40.2625C20.5288 40.2412 21.012 40.2625 21.012 40.3475C21.012 40.4113 20.4132 41.1875 19.6884 42.0807C18.9532 42.9739 18.1864 43.9096 17.9763 44.1648C17.3565 44.9198 16.8208 45.579 16.2956 46.1851C16.033 46.4934 15.7704 46.8337 15.7179 46.9294C15.6653 47.0251 15.3187 47.4611 14.9406 47.897C13.9216 49.1092 13.7431 49.3218 13.3754 49.7684C13.1969 49.9917 12.6611 50.651 12.199 51.2145C11.7263 51.7781 11.3481 52.2991 11.3481 52.3523C11.3481 52.4373 12.3775 52.4692 14.5414 52.4692H17.7347L18.7116 51.289C19.2578 50.6403 19.7935 49.9917 19.909 49.8641C20.1611 49.577 20.2662 49.4494 22.1254 47.1527C22.9132 46.1851 24.0162 44.8453 24.5729 44.1754C25.1296 43.5056 25.7704 42.7187 25.991 42.421C27.4195 40.5708 28.0708 40.2412 30.3292 40.2412C31.5372 40.2412 31.7262 40.2625 31.7262 40.4113C31.7262 40.507 31.054 41.4002 30.2347 42.3997C28.7536 44.1967 27.283 46.0043 26.7158 46.7167C26.5477 46.9188 26.3481 47.1633 26.2641 47.2484C26.18 47.3441 25.9384 47.6418 25.7494 47.897C25.5498 48.1628 25.3082 48.4499 25.2242 48.5456C25.1296 48.6307 24.9195 48.8965 24.741 49.1198C24.5729 49.3431 23.9426 50.1087 23.3544 50.8211C22.7557 51.5335 22.2725 52.2034 22.2725 52.2991C22.2725 52.4692 22.5561 52.4799 26.138 52.448L30.0036 52.4161L30.6338 52.0014C31.2326 51.6079 31.3691 51.4485 31.8523 50.5765C32.0309 50.2576 32.0414 49.8429 32.0204 43.1866L31.9889 36.1475H29.1002C26.0855 36.1475 25.7914 36.1794 24.846 36.6472C23.8691 37.1364 23.5855 37.3809 22.5561 38.5931C21.4532 39.901 21.2116 40.1561 21.138 40.0817C21.096 40.0392 21.0435 39.146 21.012 38.0827L20.9595 36.1475L18.2809 36.1262C15.9805 36.1049 15.5078 36.1368 14.8985 36.2963ZM34.1632 40.3263C34.0582 40.4007 34.0372 41.6873 34.0582 46.419L34.0897 52.4161H35.5078C37.0624 52.4054 37.2725 52.3523 37.9027 51.7143C38.5645 51.055 38.554 51.1507 38.554 45.5046C38.554 40.9217 38.533 40.3582 38.3859 40.305C38.1443 40.2093 34.3208 40.2306 34.1632 40.3263ZM40.2557 40.3263C40.1611 40.3901 40.1296 40.7091 40.1506 41.5278L40.1821 42.6336L43.0708 42.6868C45.6548 42.7293 45.9594 42.7612 45.9594 42.9101C45.9594 43.059 45.3397 43.7926 43.9111 45.3344C43.8271 45.4301 43.1653 46.1745 42.4405 46.9932C41.7157 47.8119 41.0435 48.5669 40.9279 48.6732C40.8229 48.7902 40.6233 49.1304 40.4867 49.4388C40.2556 49.9492 40.2346 50.1193 40.2557 51.2145L40.2872 52.4161H51.2115V50.1831L48.3019 50.1512C46.0645 50.13 45.3817 50.0981 45.3817 49.9917C45.3817 49.8748 46.117 49.0347 48.7535 46.0788C51.2115 43.3354 51.159 43.4311 51.159 41.5597C51.159 40.5708 51.1275 40.3582 50.9909 40.305C50.7388 40.2093 40.4132 40.2306 40.2557 40.3263ZM52.8817 40.3794C52.8607 40.4539 52.8502 42.8357 52.8607 45.6641L52.8922 50.8211L53.2073 51.2996C53.3859 51.5548 53.7325 51.9163 53.9741 52.0971L54.4363 52.4161L58.806 52.448C64.1317 52.4905 64.3523 52.4692 64.951 51.9695C65.1926 51.7674 65.4762 51.4697 65.5707 51.3209C65.8649 50.8743 65.9594 49.4707 65.9384 46.1107C65.9279 43.6757 65.9489 42.8569 66.0434 42.7719C66.1275 42.7081 66.7787 42.6762 67.7136 42.7081L69.2472 42.74L69.5518 43.1015L69.8565 43.4737L69.8775 47.9395L69.909 52.4161L71.9573 52.448C73.0812 52.4586 74.1106 52.448 74.2472 52.4161L74.4783 52.3629V47.4185C74.4783 43.7607 74.4468 42.3572 74.3522 42.0276C74.1422 41.3577 73.4909 40.6984 72.7766 40.4539C72.2094 40.2518 71.8733 40.2412 66.9258 40.2412C64.0371 40.2412 61.6107 40.2731 61.5161 40.305C61.3691 40.3582 61.3481 40.8579 61.3481 44.7815C61.3481 48.6732 61.3271 49.2261 61.18 49.492C60.8754 50.013 60.5287 50.13 59.3733 50.13C58.4594 50.13 58.2913 50.0981 57.9762 49.8854C57.7766 49.7472 57.5666 49.4813 57.493 49.2793C57.409 49.0135 57.367 47.6525 57.367 44.6433C57.3565 40.8473 57.3355 40.3582 57.1884 40.305C57.0939 40.2731 56.1065 40.2412 54.9825 40.2412C53.4069 40.2412 52.9237 40.2731 52.8817 40.3794ZM77.7661 40.4645C77.1359 40.7091 76.6632 41.1344 76.3691 41.7405C76.1695 42.1233 76.159 42.3891 76.159 46.419C76.159 50.2682 76.18 50.7148 76.3375 51.0125C76.6002 51.491 76.9888 51.9163 77.4195 52.1821C77.7871 52.4161 77.8291 52.4161 82.8817 52.4161C87.7346 52.4161 87.9867 52.4054 88.2913 52.214C88.7745 51.895 89.2787 51.2996 89.4153 50.8849C89.6043 50.3107 89.6569 43.0483 89.4783 42.2296C89.2997 41.3896 88.722 40.741 87.9026 40.4539C87.3354 40.2518 87.0098 40.2412 82.8081 40.2518C78.5644 40.2518 78.2808 40.2625 77.7661 40.4645ZM84.6779 43.1121L84.9825 43.4737V46.3552C84.972 49.4601 84.9615 49.5451 84.3943 49.9279C84.1422 50.0981 83.9006 50.13 82.8817 50.13C81.8522 50.13 81.6211 50.0981 81.327 49.9173C80.7283 49.5451 80.6758 49.2687 80.6758 46.3233V43.6863L80.9594 43.2397C81.2955 42.7187 81.3585 42.7081 83.0812 42.7293L84.3732 42.74L84.6779 43.1121ZM91.6422 49.9492C91.5476 50.2044 91.6526 51.6717 91.7577 51.6717C91.8207 51.6717 91.8732 51.5442 91.8942 51.3847C91.9153 51.2358 91.9888 51.0444 92.0728 50.9806C92.1884 50.8849 92.1884 50.8105 92.0413 50.5446C91.8837 50.2682 91.8837 50.215 92.0203 50.13C92.2409 49.9811 92.472 50.0024 92.7136 50.1725C92.9131 50.3214 92.9131 50.332 92.6821 50.5553C92.3879 50.8317 92.3774 50.9381 92.6506 51.0869C92.7661 51.1507 92.8606 51.289 92.8606 51.4059C92.8606 51.6399 93.0287 51.7781 93.1232 51.6186C93.1653 51.5548 93.1232 51.3847 93.0287 51.2464C92.8186 50.9274 92.8186 50.6935 93.0182 50.4915C93.2178 50.2894 93.2178 50.1831 93.0077 49.9811C92.7976 49.7578 91.7262 49.7472 91.6422 49.9492Z" fill="#000341"/>
</svg>
