<svg width="59" height="60" viewBox="0 0 59 60" fill="none" xmlns="http://www.w3.org/2000/svg">
<path d="M29.114 4.22693C26.5493 4.22693 23.9784 4.46361 21.058 4.90866C16.522 5.60222 11.9163 7.01724 8.9822 8.61864L8.37842 8.9483V22.5592V36.1701L8.60534 37.4393C8.87091 38.9249 9.45478 40.7706 10.022 41.9176C10.9935 43.8825 12.688 45.9687 14.3091 47.1956C16.3398 48.7328 21.3015 51.3836 27.4985 54.2428C28.3287 54.6274 29.113 54.9414 29.2415 54.944C29.9648 54.944 39.7811 50.0125 42.6832 48.1715C46.6563 45.6513 49.0748 42.0191 49.919 37.304C50.1401 36.0703 50.1405 36.0361 50.1405 22.508V8.9483L49.5368 8.61864C46.5389 6.98216 41.7999 5.54474 37.1328 4.85583C34.2373 4.42853 31.6787 4.21848 29.114 4.22693ZM39.0824 8.84264C43.1207 8.84264 48.1808 9.00325 48.5681 9.24838C48.6508 9.2991 48.6811 12.8071 48.6811 22.3052C48.6811 33.2361 48.6562 35.4735 48.5307 36.4473C47.9656 40.7968 45.9332 44.1944 42.5257 46.4851C41.0123 47.5025 39.4984 48.3524 36.404 49.9204C34.2107 51.032 29.396 53.3155 29.2547 53.3109C29.2297 53.31 28.2805 52.8861 27.1459 52.3684C24.6808 51.2433 19.5474 48.663 18.1394 47.841C15.5071 46.3038 13.9636 45.0591 12.8223 43.5537C11.3602 41.6247 10.6454 40.0166 10.1196 37.4718C9.89723 36.3949 9.89266 36.2284 9.86025 27.9665L9.827 19.5576L10.7124 18.7689C12.8512 16.864 15.7511 14.8704 18.2898 13.5594C23.1351 11.0577 28.1692 9.65708 34.7431 8.98169C35.6216 8.89294 37.2468 8.8511 39.0824 8.84264ZM42.5564 20.5732C42.1457 20.5732 41.7492 20.6239 41.392 20.7084C39.8045 21.0888 38.545 22.049 37.9123 23.3614C37.6322 23.9425 37.5674 24.2088 37.5304 24.9239C37.4019 27.4107 38.287 28.7894 41.1706 30.5958C42.9503 31.7107 43.4887 32.4013 43.4951 33.5763C43.4984 34.1726 43.4619 34.313 43.1971 34.6929C42.7832 35.2888 42.2615 35.5433 41.3561 35.5906C40.4625 35.6371 39.5339 35.3666 38.5691 34.7732C38.215 34.5577 37.8999 34.3802 37.8692 34.3802C37.8401 34.3802 37.8135 35.0737 37.8135 35.922V37.4638L38.5647 37.8146C40.056 38.5153 41.72 38.7368 43.1591 38.4266C44.9813 38.0335 46.3605 36.7178 46.8167 34.9372C47.0082 34.1887 47.0157 32.5624 46.8291 31.8553C46.4227 30.302 45.5184 29.3469 42.8941 27.699C41.4077 26.7658 40.9318 26.1635 40.9318 25.2168C40.9318 24.6804 41.0926 24.3144 41.5014 23.9193C42.3969 23.0545 44.1754 23.1513 45.6388 24.1433C45.9697 24.3673 46.2684 24.5532 46.303 24.5532C46.3362 24.5532 46.3657 23.9091 46.3657 23.1221V21.6911L45.9738 21.429C45.1503 20.8745 43.7888 20.5542 42.5564 20.5732ZM29.6757 20.6873C29.5398 20.6898 29.401 20.6873 29.2594 20.6873C28.6229 20.7295 27.8203 20.8183 27.4758 20.9028C26.5801 21.1226 25.4521 21.585 25.1721 21.8483L24.9323 22.0723V34.0847C24.9323 40.6915 24.9655 46.1289 25.0017 46.1677C25.0391 46.21 25.821 46.2269 26.7376 46.21L28.4041 46.1677L28.4291 42.3234L28.454 38.4794H29.9371C31.2405 38.4836 31.5027 38.4371 32.1011 38.2469C34.5008 37.4038 36.0441 35.0158 36.5094 31.4246C36.6574 30.2826 36.5713 27.3972 36.3615 26.4572C35.9554 24.639 35.3852 23.4827 34.3905 22.4599C33.1266 21.1602 31.7124 20.6125 29.6728 20.6497L29.6757 20.6873ZM22.7195 20.8648L20.983 20.9071L19.2466 20.9493L19.1963 27.9995L19.146 35.0496L18.8713 35.2567C18.661 35.4173 18.4018 35.4765 17.7643 35.5061C17.0435 35.5483 16.8712 35.5061 16.4791 35.3074C16.1138 35.1172 15.968 34.9524 15.7244 34.4562L15.4227 33.8421L15.3724 27.3947L15.3221 20.9476H13.6113H11.9006V27.5485C11.9006 33.5784 11.9172 34.2064 12.081 34.8142C12.6339 36.8535 13.7777 38.0098 15.6744 38.4473C16.6207 38.667 18.8645 38.591 20.0527 38.3036C20.5513 38.181 21.3438 37.8894 21.8137 37.6514L22.6683 37.2191L22.6932 29.0552L22.7182 20.8914L22.7195 20.8648ZM29.9994 23.3402C31.036 23.344 31.8059 23.9011 32.2774 24.9902C32.6917 25.948 32.83 27.0405 32.824 29.3122C32.8198 31.5877 32.7276 32.2754 32.2713 33.5074C31.985 34.2804 31.1225 35.195 30.5055 35.3797C30.0143 35.5276 29.0198 35.5276 28.6305 35.3797L28.3537 35.2783V29.4994V23.7206L28.7311 23.5558C28.9385 23.4628 29.4145 23.3698 29.7885 23.3445C29.86 23.3402 29.9302 23.3445 29.9992 23.3445L29.9994 23.3402Z" fill="#000341"/>
</svg>
