<svg width="190" height="31" viewBox="0 0 190 31" fill="none" xmlns="http://www.w3.org/2000/svg">
<g clip-path="url(#clip0_811_451)">
<path fill-rule="evenodd" clip-rule="evenodd" d="M187.03 1.57252V7.21418C184.115 6.11089 181.52 5.55281 179.25 5.55281C177.904 5.55281 176.833 5.80286 176.028 6.28593C175.223 6.77279 174.812 7.37255 174.812 8.08029C174.812 9.02122 175.721 9.85816 177.552 10.6078L182.841 13.189C187.117 15.2335 189.238 17.9481 189.238 21.3582C189.238 24.1937 188.113 26.4544 185.842 28.1283C183.588 29.8189 180.553 30.6556 176.775 30.6556C175.032 30.6556 173.466 30.5808 172.076 30.4226C170.685 30.2726 169.087 29.9643 167.314 29.5231V23.6191C170.565 24.7224 173.524 25.2805 176.19 25.2805C179.37 25.2805 180.952 24.356 180.952 22.4906C180.952 21.5624 180.304 20.8128 178.988 20.2257L173.114 17.7149C170.947 16.7323 169.336 15.5415 168.281 14.1302C167.243 12.7062 166.716 11.074 166.716 9.20858C166.716 6.59812 167.812 4.49536 169.979 2.89651C172.163 1.31015 175.061 0.514893 178.664 0.514893C179.835 0.514893 181.184 0.619083 182.679 0.810416C184.186 1.01463 185.635 1.26431 187.03 1.57252ZM20.6517 1.57252V7.21418C17.7371 6.11089 15.1467 5.55281 12.8757 5.55281C11.5265 5.55281 10.4597 5.80286 9.65425 6.28593C8.84883 6.77279 8.43781 7.37255 8.43781 8.08029C8.43781 9.02122 9.35958 9.85816 11.1903 10.6078L16.4793 13.189C20.7387 15.2335 22.8645 17.9481 22.8645 21.3582C22.8645 24.1937 21.7353 26.4544 19.4809 28.1283C17.2101 29.8189 14.1919 30.6556 10.4015 30.6556C8.65786 30.6556 7.0884 30.5808 5.69781 30.4226C4.30703 30.2726 2.72528 29.9643 0.940104 29.5231V23.6191C4.20333 24.7224 7.16338 25.2805 9.81215 25.2805C12.9921 25.2805 14.574 24.356 14.574 22.4906C14.574 21.5624 13.9303 20.8128 12.6266 20.2257L6.75218 17.7149C4.56863 16.7323 2.9578 15.5415 1.91986 14.1302C0.865305 12.7062 0.350586 11.074 0.350586 9.20858C0.350586 6.59812 1.43839 4.49536 3.61778 2.89651C5.78507 1.31015 8.68695 0.514893 12.2906 0.514893C13.4737 0.514893 14.8063 0.619083 16.3176 0.810416C17.8121 1.01463 19.2609 1.26431 20.6517 1.57252ZM35.3275 1.04361V30.1269H26.7129V1.04342L35.3275 1.04361ZM63.3421 30.1269H41.9909V1.04342H63.0807V6.41892H50.2811V12.8683H61.3824V17.7147H50.2811V24.485H63.342L63.3421 30.1269ZM68.104 30.1269V1.04342H78.6199L85.7979 18.8474L93.308 1.04342H103.297V30.1267H95.2547V10.945L86.9106 30.393H81.9453L73.9204 10.945V30.1269H68.104ZM131.299 30.1269H109.948V1.04342H131.038V6.41892H118.308V12.8683H129.41V17.7147H118.308V24.485H131.299V30.1269ZM161.265 30.1269H152.128L141.874 11.4737V30.1269H136.061V1.04342H145.465L155.453 19.3761V1.04361H161.265V30.1269Z" fill="#000341"/>
</g>
<defs>
<clipPath id="clip0_811_451">
<rect width="188.888" height="30.1585" fill="white" transform="translate(0.350586 0.505981)"/>
</clipPath>
</defs>
</svg>
