<svg width="125" height="26" viewBox="0 0 125 26" fill="none" xmlns="http://www.w3.org/2000/svg">
<path d="M11.7023 3.24215C11.978 2.44894 13.0998 2.44894 13.3755 3.24215L15.252 8.64043C15.3736 8.99035 15.7002 9.22761 16.0705 9.23516L21.7845 9.3516C22.624 9.36871 22.9707 10.4356 22.3015 10.9429L17.7473 14.3957C17.4521 14.6195 17.3273 15.0034 17.4346 15.358L19.0896 20.8282C19.3328 21.632 18.4252 22.2914 17.7359 21.8117L13.0448 18.5474C12.7407 18.3358 12.3371 18.3358 12.033 18.5474L7.34191 21.8117C6.65261 22.2914 5.74507 21.632 5.98824 20.8282L7.6432 15.358C7.75047 15.0034 7.62574 14.6195 7.33053 14.3957L2.77632 10.9429C2.10713 10.4356 2.45378 9.36871 3.29337 9.3516L9.00729 9.23516C9.37767 9.22761 9.70423 8.99035 9.82586 8.64043L11.7023 3.24215Z" fill="#F7871B"/>
<path d="M36.5021 3.24215C36.7778 2.44894 37.8996 2.44894 38.1753 3.24215L40.0518 8.64043C40.1734 8.99035 40.5 9.22761 40.8703 9.23516L46.5843 9.3516C47.4238 9.36871 47.7705 10.4356 47.1013 10.9429L42.5471 14.3957C42.2519 14.6195 42.1272 15.0034 42.2344 15.358L43.8894 20.8282C44.1326 21.632 43.225 22.2914 42.5357 21.8117L37.8446 18.5474C37.5405 18.3358 37.1369 18.3358 36.8328 18.5474L32.1417 21.8117C31.4524 22.2914 30.5449 21.632 30.788 20.8282L32.443 15.358C32.5503 15.0034 32.4255 14.6195 32.1303 14.3957L27.5761 10.9429C26.9069 10.4356 27.2536 9.36871 28.0932 9.3516L33.8071 9.23516C34.1775 9.22761 34.504 8.99035 34.6257 8.64043L36.5021 3.24215Z" fill="#F7871B"/>
<path d="M61.3019 3.24215C61.5776 2.44894 62.6994 2.44894 62.9751 3.24215L64.8516 8.64043C64.9732 8.99035 65.2998 9.22761 65.6701 9.23516L71.3841 9.3516C72.2236 9.36871 72.5703 10.4356 71.9011 10.9429L67.3469 14.3957C67.0517 14.6195 66.927 15.0034 67.0342 15.358L68.6892 20.8282C68.9324 21.632 68.0248 22.2914 67.3355 21.8117L62.6444 18.5474C62.3403 18.3358 61.9367 18.3358 61.6326 18.5474L56.9415 21.8117C56.2522 22.2914 55.3447 21.632 55.5879 20.8282L57.2428 15.358C57.3501 15.0034 57.2253 14.6195 56.9301 14.3957L52.3759 10.9429C51.7067 10.4356 52.0534 9.36871 52.893 9.3516L58.6069 9.23516C58.9773 9.22761 59.3038 8.99035 59.4255 8.64043L61.3019 3.24215Z" fill="#F7871B"/>
<path d="M86.1024 3.24215C86.3782 2.44894 87.5 2.44894 87.7757 3.24215L89.6521 8.64043C89.7737 8.99035 90.1003 9.22761 90.4707 9.23516L96.1846 9.3516C97.0242 9.36871 97.3708 10.4356 96.7017 10.9429L92.1474 14.3957C91.8522 14.6195 91.7275 15.0034 91.8348 15.358L93.4897 20.8282C93.7329 21.632 92.8254 22.2914 92.1361 21.8117L87.445 18.5474C87.1409 18.3358 86.7372 18.3358 86.4332 18.5474L81.7421 21.8117C81.0528 22.2914 80.1452 21.632 80.3884 20.8282L82.0433 15.358C82.1506 15.0034 82.0259 14.6195 81.7307 14.3957L77.1765 10.9429C76.5073 10.4356 76.8539 9.36871 77.6935 9.3516L83.4074 9.23516C83.7778 9.22761 84.1044 8.99035 84.226 8.64043L86.1024 3.24215Z" fill="#F7871B"/>
<path d="M110.902 3.24215C111.178 2.44894 112.3 2.44894 112.575 3.24215L114.452 8.64043C114.574 8.99035 114.9 9.22761 115.27 9.23516L120.984 9.3516C121.824 9.36871 122.171 10.4356 121.501 10.9429L116.947 14.3957C116.652 14.6195 116.527 15.0034 116.635 15.358L118.29 20.8282C118.533 21.632 117.625 22.2914 116.936 21.8117L112.245 18.5474C111.941 18.3358 111.537 18.3358 111.233 18.5474L106.542 21.8117C105.853 22.2914 104.945 21.632 105.188 20.8282L106.843 15.358C106.95 15.0034 106.826 14.6195 106.53 14.3957L101.976 10.9429C101.307 10.4356 101.654 9.36871 102.493 9.3516L108.207 9.23516C108.578 9.22761 108.904 8.99035 109.026 8.64043L110.902 3.24215Z" fill="#F7871B"/>
</svg>
