<?xml version="1.0" standalone="no"?>
<!DOCTYPE svg PUBLIC "-//W3C//DTD SVG 20010904//EN"
 "http://www.w3.org/TR/2001/REC-SVG-20010904/DTD/svg10.dtd">
<svg version="1.0" xmlns="http://www.w3.org/2000/svg"
 width="494.000000pt" height="494.000000pt" viewBox="0 0 494.000000 494.000000"
 preserveAspectRatio="xMidYMid meet">
<metadata>
Created by potrace 1.14, written by Peter Selinger 2001-2017
</metadata>
<g transform="translate(0.000000,494.000000) scale(0.100000,-0.100000)"
fill="#000000" stroke="none">
<path d="M2777 3604 c-3 -3 -26 -6 -53 -7 -39 -2 -48 -6 -50 -22 -3 -20 -13
-215 -14 -271 0 -27 -3 -31 -25 -29 -14 2 -28 -2 -32 -7 -10 -18 -20 -98 -22
-180 l-1 -58 -34 0 c-19 0 -38 -4 -41 -10 -3 -5 -1 -10 6 -10 10 0 10 -3 1
-12 -18 -18 -14 -27 11 -21 20 4 20 4 -3 -9 -19 -10 -25 -21 -24 -46 0 -18 -2
-32 -5 -33 -3 0 -17 -2 -30 -5 -14 -2 -28 1 -33 8 -6 10 -8 9 -8 -3 0 -14 -14
-17 -77 -19 -76 -2 -133 -6 -143 -10 -3 -1 -8 -2 -12 -1 -5 0 -9 -4 -9 -9 -1
-6 -3 -14 -4 -20 -1 -5 -3 -14 -4 -18 0 -5 -7 -9 -13 -10 -37 -5 -153 -13
-223 -15 l-80 -3 0 -74 0 -74 30 -2 c17 -1 51 -2 78 -3 l47 -1 0 -40 0 -40 40
0 c34 0 40 -3 41 -22 1 -13 2 -30 3 -38 1 -12 22 -16 110 -18 60 -1 113 1 117
5 5 5 9 23 11 41 2 31 4 32 44 32 41 0 43 1 42 30 -1 17 1 33 5 36 6 7 97 -79
97 -92 0 -5 9 -15 20 -22 12 -7 18 -18 14 -24 -5 -8 -2 -9 9 -5 14 5 17 -1 18
-41 1 -26 1 -51 0 -55 -1 -5 3 -6 9 -2 5 3 10 1 10 -5 0 -6 4 -9 9 -5 16 9 23
-15 9 -32 -11 -14 -10 -15 9 -9 16 5 23 2 28 -14 3 -11 11 -20 16 -20 6 0 7
-4 4 -10 -5 -9 7 -14 27 -11 10 1 3 -28 -10 -41 -7 -7 -12 -8 -12 -4 0 5 -7 3
-15 -4 -8 -7 -12 -17 -8 -24 3 -6 -3 -3 -14 7 -38 33 -75 -8 -44 -48 15 -18
15 -19 -1 -7 -10 8 -17 9 -20 3 -1 -6 -20 -11 -40 -13 -37 -2 -38 -3 -38 -40
0 -39 -8 -44 -62 -39 -16 2 -18 -8 -19 -86 0 -48 -1 -155 -2 -236 -1 -90 2
-151 8 -155 17 -11 55 -9 63 2 4 6 8 20 8 31 1 11 2 25 3 32 0 6 10 10 20 8
42 -8 61 5 61 44 0 35 1 36 43 38 23 1 53 4 67 6 14 3 30 5 37 6 7 0 11 15 10
34 -2 31 -1 32 41 35 44 3 48 10 42 65 -1 14 5 18 22 17 58 -5 64 -2 66 37 2
21 4 39 6 41 6 5 224 4 233 -1 5 -3 8 -21 7 -39 -2 -34 -1 -34 40 -35 105 -1
116 -3 137 -25 20 -21 21 -21 15 -3 -6 20 -6 20 9 1 10 -14 15 -15 15 -6 0 11
3 11 13 2 6 -7 13 -17 13 -22 1 -6 2 -14 3 -18 1 -8 49 -14 124 -15 23 0 41
-6 44 -13 3 -8 10 -11 17 -7 6 3 6 1 -1 -8 -18 -18 -16 -32 2 -25 8 3 14 0 12
-5 -1 -7 21 -13 56 -15 31 -1 57 1 57 6 0 4 3 15 6 23 8 21 -24 49 -47 42 -26
-8 -28 1 -31 130 -3 109 -3 110 -28 113 -47 7 -48 10 -54 190 -1 45 -18 65
-48 56 -21 -6 -26 12 -29 96 l-3 65 41 3 c38 3 41 5 41 35 0 18 2 52 5 77 3
39 7 45 28 47 13 0 30 1 37 2 7 1 12 16 12 41 0 40 0 40 39 40 40 0 40 0 43
43 3 41 4 42 38 42 34 -1 35 0 40 44 5 44 6 46 40 46 32 0 35 3 37 30 1 17 5
49 9 73 l6 42 -334 1 c-183 1 -350 1 -370 2 -36 0 -37 1 -40 41 -3 40 -4 41
-40 44 -38 3 -38 3 -40 50 -1 26 -2 55 -1 65 0 9 -4 17 -9 17 -4 0 -7 6 -6 13
2 8 -8 12 -29 11 -29 -1 -33 2 -34 25 -3 55 -3 56 -41 59 -33 3 -38 6 -39 30
-3 62 1 58 -55 61 -20 1 -23 9 -29 71 -5 52 -12 73 -25 80 -9 5 -20 7 -23 4z
m-42 -65 c-4 -5 -12 -9 -18 -8 -9 0 -8 2 1 6 6 2 9 10 6 15 -4 7 -2 8 5 4 6
-4 9 -12 6 -17z m1101 -606 c-4 -26 -22 -34 -22 -10 0 13 5 24 12 24 6 0 11
-6 10 -14z m-363 -142 c7 -1 1 -70 -7 -78 -10 -10 -34 12 -44 41 -18 48 -20
47 51 37z m-1113 -101 c11 0 60 -44 60 -54 0 -3 -18 -6 -40 -6 l-40 0 1 43 c0
23 3 36 6 30 2 -7 9 -13 13 -13z m277 -518 c-9 -2 -14 -8 -11 -14 4 -7 2 -8
-4 -4 -17 11 -3 36 16 28 16 -6 15 -7 -1 -10z"/>
<path d="M3920 3010 c-10 -6 -11 -10 -3 -10 7 0 10 -7 7 -15 -4 -8 -1 -15 6
-15 6 0 9 4 5 9 -3 5 2 11 11 13 15 3 15 5 3 15 -10 8 -20 9 -29 3z"/>
<path d="M2467 2937 c-3 -8 -1 -20 5 -28 8 -11 9 -11 5 3 -3 9 -1 18 6 21 8 2
8 5 0 10 -6 4 -13 1 -16 -6z"/>
<path d="M3574 2603 c1 -7 6 -16 11 -20 4 -4 5 -3 1 4 -3 6 -2 14 3 17 13 8 8
-19 -6 -36 -10 -11 -8 -14 8 -15 10 -1 19 3 19 8 0 6 5 7 10 4 6 -3 10 3 10
14 0 12 1 24 3 28 1 3 -12 7 -29 8 -21 1 -31 -3 -30 -12z"/>
<path d="M2590 2348 c0 -4 7 -8 15 -8 8 0 15 4 15 8 0 5 -7 9 -15 9 -8 0 -15
-4 -15 -9z"/>
<path d="M1797 2222 c-36 -2 -47 -7 -43 -17 2 -7 -2 -16 -10 -19 -9 -3 -12 -1
-9 4 11 18 -5 31 -26 20 -12 -7 -19 -21 -19 -40 0 -29 -2 -30 -45 -30 -31 0
-45 -4 -44 -12 1 -7 1 -25 0 -39 -1 -23 -5 -26 -43 -28 -123 -7 -113 -3 -116
-44 -3 -36 -4 -37 -46 -37 l-42 0 0 -37 c1 -42 6 -40 -111 -45 -44 -2 -45 -4
-46 -55 0 -23 -7 -26 -59 -25 -26 1 -28 -2 -28 -38 0 -36 -22 -61 -35 -40 -3
6 -16 5 -31 0 -14 -6 -41 -10 -60 -10 -33 0 -34 -1 -34 -39 0 -40 0 -40 -35
-37 -19 2 -37 0 -40 -4 -3 -5 -16 -7 -30 -6 -13 2 -24 0 -23 -3 2 -19 -4 -31
-14 -28 -7 1 -13 -4 -14 -10 -1 -7 -2 -17 -3 -22 0 -6 -20 -11 -43 -13 -43 -3
-43 -3 -42 -40 l2 -37 -82 -3 c-63 -2 -81 -6 -82 -18 -4 -63 -2 -60 -43 -60
-36 0 -39 -3 -43 -30 -5 -31 5 -44 32 -45 29 -1 48 15 48 40 0 14 2 28 5 31 3
3 39 5 81 5 77 0 87 4 91 43 4 34 5 36 16 36 5 0 7 -6 3 -12 -6 -10 -4 -10 7
-2 8 6 46 12 84 14 126 3 119 1 125 40 4 29 9 35 30 36 14 1 61 3 105 4 100 4
113 10 110 50 -2 28 0 30 34 31 137 4 210 11 209 19 0 3 0 19 1 35 l1 30 83 2
c141 3 157 5 158 17 1 6 2 20 3 31 1 11 7 19 14 17 6 -1 12 1 12 5 0 5 39 9
88 11 125 3 126 4 130 40 2 18 6 32 10 33 4 1 19 2 34 3 33 1 37 5 40 44 2 28
5 31 26 27 28 -5 41 -14 24 -16 -27 -3 -31 -4 -39 -13 -4 -5 -3 -6 4 -2 6 3
14 2 18 -4 3 -5 1 -10 -6 -10 -7 0 -10 -3 -6 -6 3 -3 14 -3 25 0 13 5 18 14
16 31 -1 14 2 28 7 31 12 7 10 194 -2 194 -4 0 -6 9 -4 20 2 11 0 20 -4 20 -4
0 -16 -9 -26 -20 -21 -23 -35 -26 -35 -6 0 8 7 13 16 12 9 0 18 5 20 12 1 7 0
8 -3 2 -2 -5 -10 -7 -16 -3 -15 10 -164 19 -230 15z m253 -56 c0 -3 -4 -8 -10
-11 -5 -3 -10 -1 -10 4 0 6 5 11 10 11 6 0 10 -2 10 -4z m-1205 -546 c-3 -5 1
-10 9 -10 22 0 20 -17 -3 -30 -14 -7 -22 -7 -26 0 -4 6 -10 8 -14 6 -4 -3 -8
1 -8 9 0 8 4 12 8 10 3 -3 12 2 19 10 14 17 24 20 15 5z"/>
<path d="M825 1601 c-3 -5 -2 -12 3 -15 5 -3 9 1 9 9 0 17 -3 19 -12 6z"/>
<path d="M420 1389 c0 -5 -4 -7 -10 -4 -14 9 -12 -1 3 -13 10 -8 13 -6 14 9 1
10 0 19 -3 19 -2 0 -4 -5 -4 -11z"/>
</g>
</svg>
