<?xml version="1.0" standalone="no"?>
<!DOCTYPE svg PUBLIC "-//W3C//DTD SVG 20010904//EN"
 "http://www.w3.org/TR/2001/REC-SVG-20010904/DTD/svg10.dtd">
<svg version="1.0" xmlns="http://www.w3.org/2000/svg"
 width="402.000000pt" height="402.000000pt" viewBox="0 0 402.000000 402.000000"
 preserveAspectRatio="xMidYMid meet">
<metadata>
Created by potrace 1.14, written by Peter Selinger 2001-2017
</metadata>
<g transform="translate(0.000000,402.000000) scale(0.100000,-0.100000)"
fill="#000000" stroke="none">
<path d="M756 2703 c-5 -5 -46 -12 -82 -15 -18 -1 -30 -6 -28 -10 3 -4 -2 -8
-11 -8 -21 0 -85 -30 -103 -47 -7 -7 -17 -13 -21 -13 -13 0 -139 -130 -133
-137 6 -8 -12 -33 -24 -33 -8 0 -14 -5 -14 -11 0 -5 -4 -8 -8 -5 -5 3 -18 -4
-30 -14 -12 -11 -25 -20 -30 -20 -4 0 -25 -16 -46 -35 -21 -19 -42 -35 -47
-35 -5 0 -9 -7 -9 -15 0 -7 -6 -18 -13 -22 -19 -11 -96 -126 -91 -135 2 -4 -5
-6 -16 -5 -11 1 -20 7 -20 15 0 10 -3 10 -14 0 -11 -10 -14 -51 -15 -184 l-2
-171 35 -52 c47 -69 133 -151 189 -180 15 -8 27 -18 27 -23 0 -5 5 -6 10 -3 6
3 10 1 10 -5 0 -6 5 -8 10 -5 6 3 13 -1 16 -9 3 -9 9 -14 13 -11 4 2 31 -7 61
-21 29 -13 60 -26 69 -28 9 -2 29 -8 45 -15 16 -6 36 -9 43 -7 8 3 12 2 9 -3
-3 -5 6 -8 20 -8 15 0 29 -4 33 -9 3 -5 20 -9 36 -8 17 0 36 -4 43 -9 6 -5 12
-6 12 -3 0 4 9 2 19 -4 14 -7 22 -7 27 1 4 8 9 8 13 1 4 -6 39 -12 79 -14 39
-2 72 -7 72 -12 0 -14 14 2 16 19 2 10 -3 12 -22 5 -14 -6 -26 -6 -29 0 -3 5
-20 10 -38 10 -68 1 -107 5 -107 11 0 3 -6 6 -12 7 -44 6 -58 9 -64 15 -4 4
-17 7 -29 7 -12 0 -25 3 -29 7 -4 5 -11 8 -14 8 -21 2 -82 30 -82 39 0 5 -3 7
-6 3 -20 -20 -224 141 -224 178 0 4 -9 18 -20 32 -11 14 -20 36 -20 49 0 12
-5 24 -10 26 -6 2 -13 34 -16 71 -2 38 -1 66 4 63 5 -3 8 8 7 24 -1 17 3 30 8
30 6 0 8 3 4 6 -3 3 4 23 16 43 12 20 28 47 35 61 17 33 41 65 45 59 2 -2 11
-31 21 -64 23 -77 39 -115 49 -115 5 0 5 -4 2 -10 -3 -5 -1 -10 4 -10 6 0 11
-6 11 -13 0 -7 14 -23 30 -37 17 -14 30 -29 30 -35 0 -13 127 -97 149 -99 9 0
22 -7 29 -14 8 -7 18 -10 23 -7 5 4 9 2 9 -3 0 -5 19 -9 43 -10 23 -1 43 -6
45 -11 2 -5 18 -5 38 -1 19 4 36 4 39 0 6 -10 45 -1 45 10 0 4 11 6 25 4 14
-1 39 4 55 12 16 9 39 16 50 17 11 1 20 4 20 8 0 3 11 11 25 17 29 13 38 20
98 76 23 21 41 42 40 47 -2 5 1 9 6 9 11 0 44 50 44 67 0 7 3 13 7 13 7 0 29
61 33 90 2 8 5 20 8 25 8 13 4 146 -4 165 -4 8 -8 29 -10 45 -5 45 -37 105
-56 105 -9 0 -22 5 -29 12 -13 13 -281 16 -291 2 -3 -5 -17 -10 -31 -10 -33
-2 -69 -10 -100 -22 -14 -5 -31 -7 -39 -4 -8 3 -11 0 -7 -6 4 -7 -1 -9 -14 -7
-11 2 -22 -1 -25 -6 -4 -5 -11 -7 -16 -4 -5 4 -9 2 -9 -3 0 -9 -47 -27 -62
-24 -5 1 -8 -4 -8 -11 0 -6 -11 -13 -25 -13 -14 -1 -25 1 -25 5 1 9 30 46 35
44 3 -2 7 -2 10 -2 3 1 11 2 18 3 6 1 11 8 9 15 -1 7 2 10 7 7 5 -3 22 1 37 9
16 8 37 15 47 15 9 0 17 5 17 11 0 7 10 9 25 7 13 -3 22 -2 20 2 -5 7 61 25
78 22 4 -1 7 3 7 9 0 8 4 8 14 0 8 -7 16 -8 18 -3 3 9 52 19 118 25 14 1 28 7
32 12 5 7 8 7 8 0 0 -6 26 -9 62 -8 35 1 81 -3 103 -9 22 -6 46 -11 53 -9 6 1
12 -3 12 -9 0 -5 7 -10 15 -10 8 0 15 -5 15 -11 0 -5 4 -8 9 -5 11 7 71 -47
71 -64 0 -6 4 -9 9 -5 6 3 13 -10 17 -30 3 -19 10 -35 16 -35 5 0 6 -6 1 -12
-4 -7 -9 -21 -10 -31 -3 -21 -50 -67 -68 -67 -6 0 -12 -7 -12 -15 0 -11 4 -12
11 -5 5 5 18 10 28 10 10 0 18 5 18 11 0 5 5 7 10 4 6 -4 9 -1 8 7 -2 7 3 12
10 10 7 -1 15 11 19 28 3 17 10 33 14 36 5 3 6 10 3 16 -6 10 -13 42 -16 76
-1 6 -5 12 -10 12 -4 0 -8 5 -8 10 0 13 -62 82 -68 75 -2 -2 -13 6 -23 18 -10
12 -18 19 -19 15 0 -4 -16 1 -36 12 -19 11 -39 18 -45 15 -5 -4 -9 -1 -9 4 0
10 -67 26 -102 25 -10 -1 -18 2 -18 5 0 4 -20 7 -45 7 -25 -1 -45 -5 -45 -10
0 -5 -6 -4 -12 2 -14 10 -53 10 -64 -1 -4 -3 -15 -2 -25 4 -11 5 -19 6 -19 2
0 -4 -19 -9 -43 -10 -23 -1 -52 -5 -64 -8 -29 -7 -31 20 -3 35 11 6 20 8 20 5
0 -3 9 -1 20 5 14 8 20 8 20 0 0 -6 5 -8 13 -3 19 12 47 16 118 17 44 1 66 5
66 13 0 11 -36 31 -68 37 -8 2 -21 6 -29 10 -9 3 -29 8 -45 9 -17 1 -33 7 -37
12 -5 6 -8 5 -8 -3 0 -8 -5 -10 -12 -5 -13 7 -66 12 -72 6z"/>
<path d="M1574 2046 c-5 -6 -10 -48 -9 -93 1 -50 -2 -80 -8 -76 -6 4 -7 1 -1
-8 5 -8 9 -34 10 -59 2 -75 3 -77 27 -76 12 1 27 4 32 8 8 5 11 167 6 292 -1
13 -6 17 -21 13 -10 -3 -20 -1 -22 3 -2 4 -8 3 -14 -4z"/>
<path d="M3704 2053 c3 -6 2 -14 -3 -18 -12 -7 -11 -294 1 -296 4 -1 15 -1 23
-1 30 0 33 3 31 37 -1 19 2 35 7 35 4 0 5 5 1 11 -10 17 -11 51 -2 77 5 14 4
22 -3 22 -8 0 -7 5 1 15 10 12 10 15 0 15 -10 0 -10 3 -1 14 8 10 9 16 1 21
-6 4 -7 12 -1 23 6 11 4 20 -7 30 -10 7 -11 10 -3 6 10 -5 12 -3 7 5 -6 8 -12
9 -20 2 -9 -7 -17 -7 -26 2 -9 8 -11 9 -6 0z"/>
<path d="M1340 2039 c0 -5 -7 -6 -15 -3 -13 5 -15 -15 -15 -145 0 -83 3 -151
8 -152 60 -8 64 -7 60 22 -3 16 -1 29 4 29 5 0 6 11 2 24 -7 29 6 38 55 40 52
3 85 38 87 93 1 24 -2 43 -8 43 -5 0 -7 3 -5 8 3 4 -1 13 -9 20 -8 7 -14 10
-14 5 0 -4 -7 2 -16 13 -8 10 -13 13 -9 7 4 -9 -2 -11 -22 -8 -57 10 -103 12
-103 4z m108 -92 c-3 -26 -8 -31 -35 -34 -31 -4 -32 -3 -31 31 1 36 15 46 51
38 13 -4 17 -12 15 -35z"/>
<path d="M2594 2038 c-3 -4 -12 -4 -20 -1 -21 8 -34 -15 -24 -41 4 -13 17 -21
31 -22 13 -1 29 -2 34 -2 11 -2 13 -41 2 -58 -3 -5 -2 -16 3 -24 4 -7 4 -24
-1 -37 -5 -13 -5 -23 0 -23 10 0 9 -19 -2 -37 -4 -6 -3 -15 3 -18 8 -5 7 -11
-1 -21 -8 -10 -8 -14 0 -14 15 0 14 -16 -1 -18 -7 0 -33 -6 -58 -13 -25 -6
-51 -12 -57 -12 -7 0 -13 -4 -13 -9 0 -6 -6 -8 -12 -5 -7 2 -31 -2 -53 -10
-21 -7 -45 -11 -52 -9 -7 3 -13 1 -13 -4 0 -6 -8 -10 -18 -10 -10 0 -24 -6
-31 -12 -8 -8 -11 -8 -8 -2 7 12 -43 -2 -70 -19 -6 -4 -13 -2 -15 4 -3 8 -8 8
-19 -2 -8 -8 -20 -15 -26 -16 -6 -1 -25 -5 -42 -8 -16 -3 -41 -9 -55 -15 -15
-5 -26 -7 -26 -4 0 2 -12 -2 -27 -9 -16 -8 -36 -13 -45 -12 -10 2 -18 0 -18
-4 0 -5 -15 -7 -34 -6 -35 3 -76 31 -76 52 0 14 -35 27 -50 18 -6 -4 -9 -33
-7 -71 4 -75 -7 -97 -49 -101 -16 -1 -42 -4 -59 -7 -16 -2 -38 -4 -47 -5 -10
-1 -18 -5 -18 -10 0 -4 19 -7 43 -5 23 1 42 3 42 4 0 2 68 12 92 13 12 1 20 3
18 7 -2 3 27 6 63 8 37 1 76 4 88 6 11 2 27 0 34 -4 12 -7 12 -11 0 -25 -10
-12 -10 -19 -1 -28 8 -8 14 -9 19 -1 4 5 33 16 65 24 32 7 60 17 63 22 3 4 16
8 29 8 13 0 31 7 39 16 12 12 16 12 16 2 0 -8 3 -9 8 -3 8 13 168 69 191 68 9
-1 23 1 31 4 8 4 27 8 42 10 16 2 50 10 77 17 27 7 61 12 74 12 14 -1 23 2 21
6 -3 4 7 9 23 10 42 2 44 2 98 26 73 34 82 52 33 76 -37 19 -41 20 -32 5 4 -8
0 -8 -15 0 -14 8 -21 8 -21 1 0 -5 -9 -1 -20 10 -11 11 -26 20 -34 20 -10 0
-13 26 -13 125 l0 124 29 -3 c16 -2 32 2 35 8 13 20 13 47 0 51 -23 8 -159 10
-163 3z"/>
<path d="M2434 1991 c-2 -2 -4 -17 -4 -32 0 -15 -5 -29 -10 -31 -17 -5 -21
-48 -5 -55 10 -3 15 -21 15 -54 0 -28 5 -49 11 -49 5 0 8 -4 5 -8 -11 -18 35
-31 82 -23 13 2 9 51 -4 51 -17 0 -24 13 -29 50 -3 26 0 30 20 30 19 0 22 4
17 22 -4 16 -2 19 8 13 9 -5 11 -4 6 3 -4 7 -14 12 -21 12 -8 0 -19 9 -25 19
-13 25 -13 34 1 26 6 -4 5 1 -2 13 -11 17 -52 26 -65 13z"/>
<path d="M1733 1920 c-13 -5 -23 -7 -23 -3 0 3 -10 -7 -22 -22 -39 -49 -26
-133 22 -143 8 -2 17 -7 20 -11 6 -8 39 -7 63 3 9 5 23 4 30 -2 13 -11 35 -11
53 0 7 5 11 41 10 95 -1 99 8 90 -83 80 -18 -2 -33 0 -33 5 0 10 -8 9 -37 -2z
m72 -65 c23 -24 6 -65 -27 -65 -17 1 -54 29 -50 38 17 33 25 41 45 39 12 -1
27 -6 32 -12z"/>
<path d="M1943 1912 c-11 -12 -12 -17 -2 -23 10 -6 10 -11 0 -23 -8 -9 -9 -16
-4 -16 5 0 9 -9 10 -20 1 -11 -1 -19 -5 -16 -4 2 -7 -7 -7 -20 0 -13 4 -24 8
-24 4 0 7 -8 5 -17 -2 -14 4 -18 27 -18 28 1 30 3 33 45 3 57 11 94 19 86 3
-3 12 -1 19 5 8 7 14 7 19 -1 3 -5 3 -10 -2 -10 -4 0 -2 -4 5 -8 7 -5 13 -26
13 -48 1 -61 6 -71 37 -69 22 1 27 6 27 26 0 13 4 30 9 38 6 10 5 12 -2 7 -8
-4 -10 -2 -6 7 3 8 0 33 -6 56 -10 37 -19 46 -42 42 -5 0 -8 3 -8 8 0 10 -28
8 -69 -5 -15 -4 -22 -3 -18 2 9 16 -44 11 -60 -4z"/>
<path d="M2226 1913 c-32 -17 -62 -71 -48 -85 6 -6 8 -17 5 -25 -6 -16 40 -62
64 -64 66 -5 99 4 113 31 7 13 6 19 -6 24 -23 9 -54 7 -54 -3 0 -4 -11 -6 -25
-3 -40 7 -27 34 18 37 20 1 37 -1 37 -6 0 -9 40 0 41 10 0 3 2 14 4 24 2 9 -2
17 -8 17 -5 0 -7 3 -4 6 8 8 -30 43 -47 45 -6 1 -23 2 -37 3 -15 2 -38 -3 -53
-11z m78 -42 c3 -5 -1 -11 -9 -15 -8 -3 -17 0 -21 6 -4 7 -9 6 -15 -3 -5 -8
-9 -9 -9 -3 0 23 42 35 54 15z"/>
<path d="M2795 1922 c-18 -2 -20 -10 -18 -65 1 -34 2 -76 2 -92 1 -28 4 -31
33 -30 l32 1 1 57 c2 62 12 81 41 75 23 -4 56 26 49 45 -6 14 -43 16 -64 3 -7
-5 -16 -5 -20 0 -6 10 -24 12 -56 6z"/>
<path d="M3023 1922 c-13 -2 -23 -8 -23 -13 0 -6 -5 -7 -10 -4 -11 7 -32 -36
-36 -76 -2 -15 5 -34 17 -47 11 -12 16 -22 12 -23 -4 0 3 -5 17 -11 27 -12 53
-13 88 -2 14 4 22 2 22 -5 0 -11 46 -8 58 4 6 6 4 163 -3 174 -8 14 -60 5 -57
-9 2 -10 -1 -11 -10 -3 -17 13 -48 19 -75 15z m71 -71 c15 -17 15 -20 -2 -41
-13 -16 -24 -21 -39 -16 -28 9 -38 47 -16 64 23 17 37 15 57 -7z"/>
<path d="M3210 1912 c0 -10 7 -28 16 -40 8 -12 12 -22 7 -22 -4 0 -1 -5 7 -10
8 -5 16 -13 16 -17 4 -24 17 -53 24 -53 4 0 10 -8 12 -18 8 -29 46 -20 68 16
11 18 17 32 14 32 -2 0 4 10 15 22 11 11 18 25 15 30 -3 4 0 8 6 8 6 0 8 5 5
10 -3 6 0 13 8 16 15 5 19 33 5 35 -4 1 -17 1 -28 1 -36 0 -40 -2 -40 -18 0
-9 -5 -12 -11 -8 -7 4 -10 1 -7 -7 6 -17 -9 -49 -22 -49 -6 0 -10 7 -10 15 0
8 -4 15 -8 15 -4 0 -8 10 -9 21 -2 27 -1 26 -45 33 -32 5 -38 3 -38 -12z"/>
<path d="M3520 1920 c-8 -5 -18 -6 -22 -4 -4 3 -8 0 -8 -7 0 -7 -3 -9 -7 -6
-4 4 -14 -9 -24 -29 -12 -28 -14 -45 -8 -68 9 -31 47 -68 61 -60 3 2 9 0 12
-4 12 -20 91 3 116 34 9 11 10 15 3 10 -7 -4 -13 -3 -13 2 0 5 -11 12 -25 14
-13 3 -22 2 -20 -2 11 -18 -37 -17 -58 1 -21 18 -21 18 -2 20 11 1 27 2 35 3
8 1 25 -2 38 -6 13 -4 22 -3 22 2 0 6 5 9 12 8 7 -2 13 7 14 20 1 12 -3 22 -7
22 -5 0 -9 5 -9 11 0 13 -26 40 -37 38 -4 -1 -10 -1 -13 1 -20 7 -48 8 -60 0z
m54 -49 c4 -5 -2 -8 -11 -7 -10 2 -21 -1 -24 -6 -3 -5 -9 -3 -12 6 -5 12 0 16
18 16 13 0 26 -4 29 -9z"/>
<path d="M1587 1423 c-4 -4 -26 -8 -50 -10 -121 -8 -142 -12 -145 -23 -3 -7 0
-10 5 -7 5 3 37 7 72 9 34 1 64 5 66 8 2 3 20 5 39 5 24 -1 36 3 36 12 0 14
-12 17 -23 6z"/>
<path d="M1273 1393 c-18 -2 -33 -8 -33 -12 0 -12 60 -7 65 6 2 7 3 12 2 11
-1 0 -17 -3 -34 -5z"/>
<path d="M1320 1381 c0 -11 3 -12 11 -4 6 6 17 9 24 7 7 -3 16 0 20 6 4 7 -4
10 -24 8 -20 -1 -31 -8 -31 -17z"/>
<path d="M920 1383 c0 -5 20 -8 45 -9 25 0 45 3 45 8 0 4 -20 8 -45 8 -25 0
-45 -3 -45 -7z"/>
<path d="M1020 1380 c0 -3 47 -6 105 -6 58 1 105 4 105 8 0 3 -47 6 -105 5
-58 0 -105 -3 -105 -7z"/>
</g>
</svg>
