<svg width="90" height="16" viewBox="0 0 90 16" fill="none" xmlns="http://www.w3.org/2000/svg">
<path fill-rule="evenodd" clip-rule="evenodd" d="M8.78278 0.185477C8.25316 -0.0618249 7.63876 -0.0618256 7.10914 0.185475C6.7425 0.356673 6.48241 0.680737 6.25196 1.047C6.02026 1.41526 5.76605 1.91581 5.44948 2.53915L5.44948 2.53917L5.43708 2.56358L5.18193 3.06597C4.96485 3.49339 4.90173 3.60541 4.82248 3.68707C4.74073 3.77131 4.64271 3.8386 4.53417 3.885C4.42893 3.92997 4.30035 3.94957 3.81792 4.00235L3.5863 4.02769L3.55851 4.03073H3.5585C2.79799 4.11391 2.19047 4.18036 1.73052 4.27247C1.2769 4.36331 0.854148 4.49777 0.558222 4.79502C0.13482 5.22031 -0.06451 5.81476 0.0184896 6.40464C0.0764996 6.8169 0.334843 7.17276 0.644375 7.51164C0.958225 7.85519 1.40616 8.26475 1.9669 8.77735L1.98738 8.79609L2.23191 9.0196C2.65666 9.40791 2.76557 9.51774 2.82658 9.6347C2.88958 9.75552 2.92313 9.88905 2.92458 10.0248C2.92599 10.1561 2.88075 10.3059 2.68623 10.8518L2.67704 10.8776L2.67702 10.8776C2.38996 11.683 2.16263 12.3209 2.03356 12.8172C1.90817 13.2992 1.83792 13.7726 2.00138 14.1825C2.23141 14.7594 2.72975 15.1917 3.33995 15.3437C3.77236 15.4515 4.23641 15.326 4.7022 15.1451C5.18036 14.9594 5.78585 14.6614 6.54927 14.2856L6.57427 14.2733L7.16787 13.981C7.5681 13.784 7.67739 13.7356 7.78227 13.7161C7.89043 13.6962 8.00149 13.6962 8.10965 13.7161C8.21453 13.7356 8.32382 13.784 8.72405 13.981L9.31765 14.2733L9.34272 14.2856C10.1061 14.6614 10.7116 14.9594 11.1897 15.1451C11.6555 15.326 12.1195 15.4515 12.5519 15.3437C13.1622 15.1917 13.6605 14.7594 13.8905 14.1825C14.054 13.7726 13.9837 13.2992 13.8584 12.8172C13.7293 12.3209 13.502 11.683 13.2149 10.8776V10.8775L13.2057 10.8518C13.0112 10.3059 12.966 10.1561 12.9673 10.0248C12.9688 9.88905 13.0023 9.75552 13.0654 9.6347C13.1264 9.51774 13.2352 9.40791 13.66 9.0196L13.9045 8.79609L13.9251 8.77728C14.4858 8.26468 14.9337 7.85519 15.2475 7.51164C15.5571 7.17276 15.8154 6.8169 15.8734 6.40464C15.9565 5.81476 15.7571 5.22031 15.3337 4.79502C15.0378 4.49777 14.615 4.36331 14.1614 4.27247C13.7014 4.18036 13.0939 4.11391 12.3334 4.03073L12.3056 4.02769L12.074 4.00235C11.5916 3.94957 11.463 3.92997 11.3578 3.885C11.2492 3.8386 11.1512 3.77131 11.0695 3.68707C10.9902 3.60541 10.9271 3.49339 10.71 3.06596L10.4549 2.56359L10.4424 2.53916C10.1259 1.91581 9.8717 1.41526 9.63998 1.047C9.40954 0.680737 9.14949 0.35668 8.78278 0.185477Z" fill="#03B00A"/>
<path fill-rule="evenodd" clip-rule="evenodd" d="M27.2664 0.185477C26.7368 -0.0618249 26.1224 -0.0618256 25.5928 0.185475C25.2261 0.356673 24.9661 0.680737 24.7356 1.047C24.5039 1.41526 24.2497 1.91581 23.9331 2.53915L23.9331 2.53917L23.9207 2.56358L23.6656 3.06597C23.4485 3.49339 23.3854 3.60541 23.3061 3.68707C23.2244 3.77131 23.1264 3.8386 23.0178 3.885C22.9126 3.92997 22.784 3.94957 22.3016 4.00235L22.0699 4.02769L22.0422 4.03073H22.0421C21.2816 4.11391 20.6741 4.18036 20.2142 4.27247C19.7605 4.36331 19.3378 4.49777 19.0419 4.79502C18.6185 5.22031 18.4191 5.81476 18.5021 6.40464C18.5601 6.8169 18.8185 7.17276 19.128 7.51164C19.4419 7.85519 19.8898 8.26475 20.4505 8.77735L20.471 8.79609L20.7156 9.0196C21.1403 9.40791 21.2492 9.51774 21.3102 9.6347C21.3732 9.75552 21.4068 9.88905 21.4082 10.0248C21.4096 10.1561 21.3644 10.3059 21.1699 10.8518L21.1607 10.8776L21.1607 10.8776C20.8736 11.683 20.6463 12.3209 20.5172 12.8172C20.3918 13.2992 20.3216 13.7726 20.485 14.1825C20.715 14.7594 21.2134 15.1917 21.8236 15.3437C22.256 15.4515 22.72 15.326 23.1858 15.1451C23.664 14.9594 24.2695 14.6614 25.0329 14.2856L25.0579 14.2733L25.6515 13.981C26.0517 13.784 26.161 13.7356 26.2659 13.7161C26.3741 13.6962 26.4851 13.6962 26.5933 13.7161C26.6982 13.7356 26.8075 13.784 27.2077 13.981L27.8013 14.2733L27.8264 14.2856C28.5898 14.6614 29.1952 14.9594 29.6733 15.1451C30.1391 15.326 30.6032 15.4515 31.0356 15.3437C31.6458 15.1917 32.1442 14.7594 32.3742 14.1825C32.5377 13.7726 32.4674 13.2992 32.342 12.8172C32.2129 12.3209 31.9856 11.683 31.6985 10.8776V10.8775L31.6893 10.8518C31.4948 10.3059 31.4496 10.1561 31.4509 10.0248C31.4524 9.88905 31.486 9.75552 31.549 9.6347C31.61 9.51774 31.7189 9.40791 32.1437 9.0196L32.3882 8.79609L32.4087 8.77728C32.9694 8.26468 33.4174 7.85519 33.7312 7.51164C34.0407 7.17276 34.2991 6.8169 34.3571 6.40464C34.4401 5.81476 34.2408 5.22031 33.8173 4.79502C33.5214 4.49777 33.0987 4.36331 32.645 4.27247C32.1851 4.18036 31.5776 4.11391 30.8171 4.03073L30.7892 4.02769L30.5577 4.00235C30.0752 3.94957 29.9466 3.92997 29.8414 3.885C29.7329 3.8386 29.6349 3.77131 29.5531 3.68707C29.4739 3.60541 29.4107 3.49339 29.1937 3.06596L28.9385 2.56359L28.9261 2.53916C28.6095 1.91581 28.3553 1.41526 28.1236 1.047C27.8932 0.680737 27.6331 0.35668 27.2664 0.185477Z" fill="#03B00A"/>
<path fill-rule="evenodd" clip-rule="evenodd" d="M45.7503 0.185477C45.2207 -0.0618249 44.6063 -0.0618256 44.0767 0.185475C43.71 0.356673 43.4499 0.680737 43.2195 1.047C42.9878 1.41526 42.7336 1.91581 42.417 2.53915L42.417 2.53917L42.4046 2.56358L42.1495 3.06597C41.9324 3.49339 41.8693 3.60541 41.79 3.68707C41.7083 3.77131 41.6102 3.8386 41.5017 3.885C41.3965 3.92997 41.2679 3.94957 40.7854 4.00235L40.5538 4.02769L40.526 4.03073H40.526C39.7655 4.11391 39.158 4.18036 38.6981 4.27247C38.2444 4.36331 37.8217 4.49777 37.5258 4.79502C37.1023 5.22031 36.903 5.81476 36.986 6.40464C37.044 6.8169 37.3024 7.17276 37.6119 7.51164C37.9258 7.85519 38.3737 8.26475 38.9344 8.77735L38.9549 8.79609L39.1994 9.0196C39.6242 9.40791 39.7331 9.51774 39.7941 9.6347C39.8571 9.75552 39.8907 9.88905 39.8921 10.0248C39.8935 10.1561 39.8483 10.3059 39.6538 10.8518L39.6446 10.8776L39.6446 10.8776C39.3575 11.683 39.1302 12.3209 39.0011 12.8172C38.8757 13.2992 38.8054 13.7726 38.9689 14.1825C39.1989 14.7594 39.6973 15.1917 40.3075 15.3437C40.7399 15.4515 41.2039 15.326 41.6697 15.1451C42.1479 14.9594 42.7534 14.6614 43.5168 14.2856L43.5418 14.2733L44.1354 13.981C44.5356 13.784 44.6449 13.7356 44.7498 13.7161C44.858 13.6962 44.969 13.6962 45.0772 13.7161C45.1821 13.7356 45.2914 13.784 45.6916 13.981L46.2852 14.2733L46.3102 14.2856C47.0736 14.6614 47.6791 14.9594 48.1572 15.1451C48.623 15.326 49.0871 15.4515 49.5195 15.3437C50.1297 15.1917 50.6281 14.7594 50.8581 14.1825C51.0215 13.7726 50.9512 13.2992 50.8259 12.8172C50.6968 12.3209 50.4695 11.683 50.1824 10.8776V10.8775L50.1732 10.8518C49.9787 10.3059 49.9335 10.1561 49.9348 10.0248C49.9363 9.88905 49.9698 9.75552 50.0329 9.6347C50.0939 9.51774 50.2028 9.40791 50.6276 9.0196L50.8721 8.79609L50.8926 8.77728C51.4533 8.26468 51.9013 7.85519 52.2151 7.51164C52.5246 7.17276 52.783 6.8169 52.841 6.40464C52.924 5.81476 52.7247 5.22031 52.3012 4.79502C52.0053 4.49777 51.5826 4.36331 51.1289 4.27247C50.669 4.18036 50.0615 4.11391 49.301 4.03073L49.2731 4.02769L49.0416 4.00235C48.5591 3.94957 48.4305 3.92997 48.3253 3.885C48.2167 3.8386 48.1187 3.77131 48.037 3.68707C47.9578 3.60541 47.8946 3.49339 47.6775 3.06596L47.4224 2.56359L47.41 2.53916C47.0934 1.91581 46.8392 1.41526 46.6075 1.047C46.3771 0.680737 46.117 0.35668 45.7503 0.185477Z" fill="#03B00A"/>
<path fill-rule="evenodd" clip-rule="evenodd" d="M64.2339 0.185477C63.7043 -0.0618249 63.0899 -0.0618256 62.5603 0.185475C62.1937 0.356673 61.9336 0.680737 61.7031 1.047C61.4714 1.41526 61.2172 1.91581 60.9007 2.53915L60.9006 2.53917L60.8882 2.56358L60.6331 3.06597C60.416 3.49339 60.3529 3.60541 60.2736 3.68707C60.1919 3.77131 60.0939 3.8386 59.9853 3.885C59.8801 3.92997 59.7515 3.94957 59.2691 4.00235L59.0375 4.02769L59.0097 4.03073H59.0097C58.2492 4.11391 57.6416 4.18036 57.1817 4.27247C56.7281 4.36331 56.3053 4.49777 56.0094 4.79502C55.586 5.22031 55.3867 5.81476 55.4697 6.40464C55.5277 6.8169 55.786 7.17276 56.0955 7.51164C56.4094 7.85519 56.8573 8.26475 57.4181 8.77735L57.4386 8.79609L57.6831 9.0196C58.1078 9.40791 58.2167 9.51774 58.2778 9.6347C58.3407 9.75552 58.3743 9.88905 58.3758 10.0248C58.3772 10.1561 58.3319 10.3059 58.1374 10.8518L58.1282 10.8776L58.1282 10.8776C57.8411 11.683 57.6138 12.3209 57.4847 12.8172C57.3593 13.2992 57.2891 13.7726 57.4526 14.1825C57.6826 14.7594 58.1809 15.1917 58.7911 15.3437C59.2235 15.4515 59.6876 15.326 60.1534 15.1451C60.6315 14.9594 61.237 14.6614 62.0004 14.2856L62.0254 14.2733L62.619 13.981C63.0193 13.784 63.1286 13.7356 63.2334 13.7161C63.3416 13.6962 63.4527 13.6962 63.5608 13.7161C63.6657 13.7356 63.775 13.784 64.1752 13.981L64.7688 14.2733L64.7939 14.2856C65.5573 14.6614 66.1627 14.9594 66.6409 15.1451C67.1066 15.326 67.5707 15.4515 68.0031 15.3437C68.6133 15.1917 69.1117 14.7594 69.3417 14.1825C69.5052 13.7726 69.4349 13.2992 69.3095 12.8172C69.1804 12.3209 68.9531 11.683 68.666 10.8776V10.8775L68.6569 10.8518C68.4624 10.3059 68.4171 10.1561 68.4185 10.0248C68.42 9.88905 68.4535 9.75552 68.5165 9.6347C68.5775 9.51774 68.6864 9.40791 69.1112 9.0196L69.3557 8.79609L69.3762 8.77728C69.9369 8.26468 70.3849 7.85519 70.6987 7.51164C71.0083 7.17276 71.2666 6.8169 71.3246 6.40464C71.4076 5.81476 71.2083 5.22031 70.7848 4.79502C70.4889 4.49777 70.0662 4.36331 69.6126 4.27247C69.1526 4.18036 68.5451 4.11391 67.7846 4.03073L67.7568 4.02769L67.5252 4.00235C67.0427 3.94957 66.9141 3.92997 66.809 3.885C66.7004 3.8386 66.6024 3.77131 66.5206 3.68707C66.4414 3.60541 66.3783 3.49339 66.1612 3.06596L65.906 2.56359L65.8936 2.53916C65.577 1.91581 65.3229 1.41526 65.0911 1.047C64.8607 0.680737 64.6007 0.35668 64.2339 0.185477Z" fill="#03B00A"/>
<path fill-rule="evenodd" clip-rule="evenodd" d="M82.7176 0.185477C82.188 -0.0618249 81.5736 -0.0618256 81.044 0.185475C80.6773 0.356673 80.4172 0.680737 80.1868 1.047C79.9551 1.41526 79.7009 1.91581 79.3843 2.53915L79.3843 2.53917L79.3719 2.56358L79.1167 3.06597C78.8997 3.49339 78.8365 3.60541 78.7573 3.68707C78.6755 3.77131 78.5775 3.8386 78.469 3.885C78.3637 3.92997 78.2352 3.94957 77.7527 4.00235L77.5211 4.02769L77.4933 4.03073H77.4933C76.7328 4.11391 76.1253 4.18036 75.6653 4.27247C75.2117 4.36331 74.789 4.49777 74.493 4.79502C74.0696 5.22031 73.8703 5.81476 73.9533 6.40464C74.0113 6.8169 74.2697 7.17276 74.5792 7.51164C74.893 7.85519 75.341 8.26475 75.9017 8.77735L75.9222 8.79609L76.1667 9.0196C76.5915 9.40791 76.7004 9.51774 76.7614 9.6347C76.8244 9.75552 76.8579 9.88905 76.8594 10.0248C76.8608 10.1561 76.8156 10.3059 76.621 10.8518L76.6119 10.8776L76.6118 10.8776C76.3248 11.683 76.0974 12.3209 75.9684 12.8172C75.843 13.2992 75.7727 13.7726 75.9362 14.1825C76.1662 14.7594 76.6646 15.1917 77.2748 15.3437C77.7072 15.4515 78.1712 15.326 78.637 15.1451C79.1152 14.9594 79.7207 14.6614 80.4841 14.2856L80.5091 14.2733L81.1027 13.981C81.5029 13.784 81.6122 13.7356 81.7171 13.7161C81.8252 13.6962 81.9363 13.6962 82.0445 13.7161C82.1493 13.7356 82.2586 13.784 82.6589 13.981L83.2525 14.2733L83.2775 14.2856C84.0409 14.6614 84.6464 14.9594 85.1245 15.1451C85.5903 15.326 86.0544 15.4515 86.4868 15.3437C87.097 15.1917 87.5953 14.7594 87.8254 14.1825C87.9888 13.7726 87.9185 13.2992 87.7932 12.8172C87.6641 12.3209 87.4368 11.683 87.1497 10.8776V10.8775L87.1405 10.8518C86.946 10.3059 86.9008 10.1561 86.9021 10.0248C86.9036 9.88905 86.9371 9.75552 87.0002 9.6347C87.0612 9.51774 87.17 9.40791 87.5949 9.0196L87.8393 8.79609L87.8599 8.77728C88.4206 8.26468 88.8685 7.85519 89.1824 7.51164C89.4919 7.17276 89.7502 6.8169 89.8083 6.40464C89.8913 5.81476 89.6919 5.22031 89.2685 4.79502C88.9726 4.49777 88.5498 4.36331 88.0962 4.27247C87.6363 4.18036 87.0287 4.11391 86.2683 4.03073L86.2404 4.02769L86.0088 4.00235C85.5264 3.94957 85.3978 3.92997 85.2926 3.885C85.184 3.8386 85.086 3.77131 85.0043 3.68707C84.925 3.60541 84.8619 3.49339 84.6448 3.06596L84.3897 2.56359L84.3772 2.53916C84.0607 1.91581 83.8065 1.41526 83.5748 1.047C83.3444 0.680737 83.0843 0.35668 82.7176 0.185477Z" fill="#03B00A"/>
</svg>
