<svg width="19" height="19" viewBox="0 0 19 19" fill="none" xmlns="http://www.w3.org/2000/svg">
<path d="M3.97848 12.5208C3.69244 12.0267 3.47791 11.5197 3.33489 10.9996C3.19187 10.4795 3.12036 9.94644 3.12036 9.40037C3.12036 7.65812 3.72495 6.17591 4.93412 4.95374C6.14329 3.73157 7.619 3.12048 9.36124 3.12048H9.49776L8.24958 1.87231L9.34174 0.780151L12.4622 3.90059L9.34174 7.02103L8.24958 5.92888L9.49776 4.6807H9.36124C8.06106 4.6807 6.9559 5.13915 6.04577 6.05604C5.13565 6.97292 4.68058 8.0877 4.68058 9.40037C4.68058 9.73841 4.71959 10.07 4.7976 10.395C4.87561 10.7201 4.99262 11.0386 5.14865 11.3506L3.97848 12.5208ZM9.38074 17.9426L6.2603 14.8221L9.38074 11.7017L10.4729 12.7938L9.22472 14.042H9.36124C10.6614 14.042 11.7666 13.5836 12.6767 12.6667C13.5868 11.7498 14.0419 10.635 14.0419 9.32236C14.0419 8.98431 14.0029 8.65276 13.9249 8.32772C13.8469 8.00267 13.7299 7.68412 13.5738 7.37208L14.744 6.20192C15.03 6.69598 15.2446 7.20306 15.3876 7.72313C15.5306 8.2432 15.6021 8.77628 15.6021 9.32236C15.6021 11.0646 14.9975 12.5468 13.7884 13.769C12.5792 14.9912 11.1035 15.6022 9.36124 15.6022H9.22472L10.4729 16.8504L9.38074 17.9426Z" fill="white"/>
</svg>
