<svg width="11" height="18" viewBox="0 0 11 18" fill="none" xmlns="http://www.w3.org/2000/svg">
<path d="M2 5.76244C2 5.0183 2.20228 4.29087 2.58125 3.67214C2.96022 3.05341 3.49886 2.57117 4.12907 2.2864C4.75927 2.00163 5.45273 1.92712 6.12175 2.0723C6.79078 2.21747 7.40531 2.57581 7.88765 3.102C8.36999 3.62818 8.69846 4.29859 8.83154 5.02843C8.96462 5.75827 8.89632 6.51477 8.63528 7.20227C8.37424 7.88977 7.93218 8.47738 7.36502 8.8908C6.79785 9.30422 6.13103 9.52489 5.44891 9.52489V10.779M5.4535 15.7956C5.30105 15.7956 5.15485 15.7296 5.04705 15.612C4.93925 15.4944 4.87869 15.3349 4.87869 15.1686C4.87869 15.0022 4.93925 14.8427 5.04705 14.7251C5.15485 14.6075 5.30105 14.5415 5.4535 14.5415C5.60595 14.5415 5.75216 14.6075 5.85996 14.7251C5.96776 14.8427 6.02832 15.0022 6.02832 15.1686C6.02832 15.3349 5.96776 15.4944 5.85996 15.612C5.75216 15.7296 5.60595 15.7956 5.4535 15.7956Z" stroke="white" stroke-width="2.4635" stroke-linecap="round" stroke-linejoin="round"/>
</svg>
