<svg width="13" height="17" viewBox="0 0 13 17" fill="none" xmlns="http://www.w3.org/2000/svg">
<path d="M5.58343 4.46716C6.817 4.46716 7.81701 3.46715 7.81701 2.23358C7.81701 1.00001 6.817 0 5.58343 0C4.34986 0 3.34985 1.00001 3.34985 2.23358C3.34985 3.46715 4.34986 4.46716 5.58343 4.46716Z" fill="white"/>
<path d="M8.26039 5.46716H4.02429C3.85989 5.46716 3.69774 5.50386 3.55068 5.57435C3.40363 5.64483 3.27572 5.74718 3.17707 5.87327L0 9.93432L1.69444 11.1526L2.96527 9.52822V16.6351H5.08332V12.574H7.20137V16.6351H9.31942V9.52822L10.5902 11.1526L12.2847 9.93432L9.10761 5.87327C9.00897 5.74718 8.88105 5.64483 8.734 5.57435C8.58695 5.50386 8.4248 5.46716 8.26039 5.46716Z" fill="white"/>
</svg>
