<svg width="21" height="21" viewBox="0 0 21 21" fill="none" xmlns="http://www.w3.org/2000/svg">
<path d="M2.58643 4.95785C2.58643 4.32899 2.83624 3.72589 3.28091 3.28122C3.72558 2.83655 4.32869 2.58673 4.95755 2.58673H15.7354C16.3642 2.58673 16.9673 2.83655 17.412 3.28122C17.8567 3.72589 18.1065 4.32899 18.1065 4.95785V10.3657C17.5771 10.0265 16.994 9.77925 16.3821 9.63457V4.95785C16.3821 4.78635 16.3139 4.62186 16.1926 4.50059C16.0714 4.37932 15.9069 4.31118 15.7354 4.31118H4.95755C4.78604 4.31118 4.62156 4.37932 4.50028 4.50059C4.37901 4.62186 4.31088 4.78635 4.31088 4.95785V15.7357C4.31088 16.0926 4.60059 16.3824 4.95755 16.3824H9.63427C9.78084 17.0032 10.0309 17.5852 10.3654 18.1068H4.95755C4.32869 18.1068 3.72558 17.857 3.28091 17.4123C2.83624 16.9677 2.58643 16.3645 2.58643 15.7357V4.95785ZM19.831 15.089C19.831 13.8313 19.3313 12.6251 18.442 11.7357C17.5526 10.8464 16.3464 10.3468 15.0887 10.3468C13.831 10.3468 12.6248 10.8464 11.7354 11.7357C10.8461 12.6251 10.3465 13.8313 10.3465 15.089C10.3465 16.3467 10.8461 17.5529 11.7354 18.4423C12.6248 19.3316 13.831 19.8313 15.0887 19.8313C16.3464 19.8313 17.5526 19.3316 18.442 18.4423C19.3313 17.5529 19.831 16.3467 19.831 15.089ZM15.5198 15.5201L15.5207 17.6783C15.5207 17.7926 15.4753 17.9023 15.3944 17.9831C15.3136 18.064 15.2039 18.1094 15.0896 18.1094C14.9752 18.1094 14.8656 18.064 14.7847 17.9831C14.7039 17.9023 14.6585 17.7926 14.6585 17.6783V15.5201H12.4986C12.3842 15.5201 12.2746 15.4747 12.1937 15.3939C12.1129 15.313 12.0675 15.2034 12.0675 15.089C12.0675 14.9747 12.1129 14.865 12.1937 14.7842C12.2746 14.7033 12.3842 14.6579 12.4986 14.6579H14.6576V12.5023C14.6576 12.388 14.703 12.2783 14.7839 12.1975C14.8647 12.1166 14.9744 12.0712 15.0887 12.0712C15.203 12.0712 15.3127 12.1166 15.3936 12.1975C15.4744 12.2783 15.5198 12.388 15.5198 12.5023V14.6579H17.6728C17.7871 14.6579 17.8968 14.7033 17.9776 14.7842C18.0585 14.865 18.1039 14.9747 18.1039 15.089C18.1039 15.2034 18.0585 15.313 17.9776 15.3939C17.8968 15.4747 17.7871 15.5201 17.6728 15.5201H15.5198Z" fill="white"/>
</svg>
