<svg width="49" height="49" viewBox="0 0 49 49" fill="none" xmlns="http://www.w3.org/2000/svg">
<ellipse cx="24.0278" cy="24.1259" rx="24.0278" ry="24.1259" fill="#000341"/>
<path d="M23 32.1L31.2 23.9C31.7 23.4 32.3 23.1 33 23.1C33.7 23.1 34.3 23.4 34.8 23.9L35 24.1V16C35 14.9 34.1 14 33 14H15C13.9 14 13 14.9 13 16V32C13 33.1 13.9 34 15 34H23V32.1ZM15 16H33V19H15V16ZM33 25.1C32.9 25.1 32.7 25.2 32.6 25.3L31.6 26.3L33.7 28.4L34.7 27.4C34.9 27.2 34.9 26.8 34.7 26.6L33.4 25.3C33.3 25.2 33.2 25.1 33 25.1ZM31.1 26.9L25 32.9V35H27.1L33.2 28.9L31.1 26.9Z" fill="white"/>
</svg>
