<svg width="49" height="49" viewBox="0 0 49 49" fill="none" xmlns="http://www.w3.org/2000/svg">
<ellipse cx="24.0278" cy="24.1259" rx="24.0278" ry="24.1259" fill="#000341"/>
<g clip-path="url(#clip0_811_313)">
<path fill-rule="evenodd" clip-rule="evenodd" d="M17 14C16.4696 14 15.9609 14.2107 15.5858 14.5858C15.2107 14.9609 15 15.4696 15 16V30C15 30.5304 15.2107 31.0391 15.5858 31.4142C15.9609 31.7893 16.4696 32 17 32H23C23.5304 32 24.0391 31.7893 24.4142 31.4142C24.7893 31.0391 25 30.5304 25 30V24H31C31.5304 24 32.0391 23.7893 32.4142 23.4142C32.7893 23.0391 33 22.5304 33 22V16C33 15.4696 32.7893 14.9609 32.4142 14.5858C32.0391 14.2107 31.5304 14 31 14H17ZM24 23V16H17V23H24Z" fill="white"/>
</g>
<defs>
<clipPath id="clip0_811_313">
<rect width="24" height="24" fill="white" transform="translate(12 11)"/>
</clipPath>
</defs>
</svg>
