<svg width="49" height="49" viewBox="0 0 49 49" fill="none" xmlns="http://www.w3.org/2000/svg">
<ellipse cx="24.0278" cy="24.1259" rx="24.0278" ry="24.1259" fill="#000341"/>
<path d="M14.7852 21.9718V25.7055C14.7852 28.3462 14.7852 29.6661 15.6023 30.4866C15.804 30.6892 16.0365 30.8413 16.3116 30.9571C16.3054 30.9154 16.2995 30.8737 16.294 30.832C16.1796 29.9751 16.1796 28.9063 16.1796 27.6648V20.0134C16.1796 18.7719 16.1796 17.7022 16.294 16.8462L16.3126 16.7212C16.0469 16.8288 15.8054 16.9888 15.6023 17.1916C14.7852 18.0121 14.7852 19.332 14.7852 21.9718ZM33.3781 21.9718V25.7055C33.3781 28.3462 33.3781 29.6661 32.5609 30.4866C32.3592 30.6892 32.1268 30.8413 31.8516 30.9571L31.8692 30.832C31.9836 29.9751 31.9836 28.9063 31.9836 27.6648V20.0134C31.9836 18.7719 31.9836 17.7022 31.8692 16.8462C31.8634 16.8045 31.8572 16.7628 31.8507 16.7212C32.1268 16.836 32.3592 16.9891 32.5609 17.1916C33.3781 18.0121 33.3781 19.332 33.3781 21.9718Z" fill="white"/>
<path fill-rule="evenodd" clip-rule="evenodd" d="M18.3911 15.3248C17.574 16.1443 17.574 17.4651 17.574 20.1049V27.5724C17.574 30.2122 17.574 31.533 18.3911 32.3526C19.2074 33.1731 20.5228 33.1731 23.1518 33.1731H25.0111C27.6402 33.1731 28.9556 33.1731 29.7718 32.3526C30.589 31.533 30.589 30.2122 30.589 27.5724V20.1049C30.589 17.4651 30.589 16.1443 29.7718 15.3248C28.9556 14.5043 27.6402 14.5043 25.0111 14.5043H23.1518C20.5228 14.5043 19.2074 14.5043 18.3911 15.3248ZM20.5953 28.5059C20.5953 28.3202 20.6688 28.1421 20.7995 28.0109C20.9303 27.8796 21.1076 27.8058 21.2926 27.8058H24.0815C24.2664 27.8058 24.4438 27.8796 24.5745 28.0109C24.7053 28.1421 24.7787 28.3202 24.7787 28.5059C24.7787 28.6916 24.7053 28.8696 24.5745 29.0009C24.4438 29.1322 24.2664 29.206 24.0815 29.206H21.2926C21.1076 29.206 20.9303 29.1322 20.7995 29.0009C20.6688 28.8696 20.5953 28.6916 20.5953 28.5059ZM21.2926 24.072C21.1076 24.072 20.9303 24.1458 20.7995 24.2771C20.6688 24.4084 20.5953 24.5864 20.5953 24.7721C20.5953 24.9578 20.6688 25.1359 20.7995 25.2671C20.9303 25.3984 21.1076 25.4722 21.2926 25.4722H26.8704C27.0553 25.4722 27.2327 25.3984 27.3634 25.2671C27.4942 25.1359 27.5677 24.9578 27.5677 24.7721C27.5677 24.5864 27.4942 24.4084 27.3634 24.2771C27.2327 24.1458 27.0553 24.072 26.8704 24.072H21.2926ZM20.5953 21.0383C20.5953 20.8527 20.6688 20.6746 20.7995 20.5433C20.9303 20.412 21.1076 20.3383 21.2926 20.3383H26.8704C27.0553 20.3383 27.2327 20.412 27.3634 20.5433C27.4942 20.6746 27.5677 20.8527 27.5677 21.0383C27.5677 21.224 27.4942 21.4021 27.3634 21.5334C27.2327 21.6647 27.0553 21.7384 26.8704 21.7384H21.2926C21.1076 21.7384 20.9303 21.6647 20.7995 21.5334C20.6688 21.4021 20.5953 21.224 20.5953 21.0383Z" fill="white"/>
</svg>
