<svg width="49" height="49" viewBox="0 0 49 49" fill="none" xmlns="http://www.w3.org/2000/svg">
<ellipse cx="24.0278" cy="24.1259" rx="24.0278" ry="24.1259" fill="#000341"/>
<g clip-path="url(#clip0_811_324)">
<path fill-rule="evenodd" clip-rule="evenodd" d="M32.469 18.3446C32.6256 18.4071 32.7599 18.5151 32.8546 18.6547C32.9492 18.7943 32.9999 18.959 33 19.1276V28.8724C32.9999 29.041 32.9492 29.2057 32.8546 29.3453C32.7599 29.4849 32.6256 29.5929 32.469 29.6554L24.3127 32.9179C24.1116 32.9983 23.8873 32.9983 23.6861 32.9179L15.5299 29.6554C15.3735 29.5927 15.2394 29.4846 15.145 29.3451C15.0505 29.2055 15 29.0409 15 28.8724V19.1276C15 18.9591 15.0505 18.7945 15.145 18.6549C15.2394 18.5154 15.3735 18.4073 15.5299 18.3446L23.3734 15.207L23.3779 15.2059L23.6861 15.0821C23.8876 15.0014 24.1124 15.0014 24.3139 15.0821L24.6221 15.2059L24.6266 15.207L32.469 18.3446ZM30.9233 18.9375L24 21.7073L17.0768 18.9375L16.125 19.3189V19.7689L23.4375 22.6939V31.6061L24 31.8311L24.5625 31.6061V22.695L31.875 19.77V19.32L30.9233 18.9375Z" fill="white"/>
</g>
<defs>
<clipPath id="clip0_811_324">
<rect width="18" height="18" fill="white" transform="translate(15 15)"/>
</clipPath>
</defs>
</svg>
