<svg width="84" height="84" viewBox="0 0 84 84" fill="none" xmlns="http://www.w3.org/2000/svg">
<circle cx="42" cy="42" r="42" fill="#DBEAFF"/>
<path d="M42 35.5C40.8065 35.5 39.6619 35.9741 38.818 36.818C37.9741 37.6619 37.5 38.8065 37.5 40C37.5 41.1935 37.9741 42.3381 38.818 43.182C39.6619 44.0259 40.8065 44.5 42 44.5C43.1935 44.5 44.3381 44.0259 45.182 43.182C46.0259 42.3381 46.5 41.1935 46.5 40C46.5 38.8065 46.0259 37.6619 45.182 36.818C44.3381 35.9741 43.1935 35.5 42 35.5Z" fill="#000341"/>
<path d="M28.5 29.317C28.4999 28.5264 28.7774 27.7609 29.284 27.154C29.7906 26.5471 30.4942 26.1372 31.272 25.996L49.272 22.7245C49.7582 22.6362 50.2578 22.6558 50.7356 22.7818C51.2134 22.9077 51.6576 23.1371 52.0371 23.4537C52.4165 23.7702 52.7218 24.1662 52.9313 24.6136C53.1409 25.0611 53.2497 25.5491 53.25 26.0433V27.1008C53.9344 27.4959 54.5027 28.0643 54.8976 28.7488C55.2926 29.4333 55.5004 30.2097 55.5 31V53.5C55.5 54.6935 55.0259 55.8381 54.182 56.682C53.3381 57.5259 52.1935 58 51 58H33C32.3559 58.0002 31.7193 57.862 31.1331 57.595C30.547 57.3279 30.025 56.9381 29.6025 56.452C29.2549 56.1355 28.9773 55.7498 28.7875 55.3197C28.5976 54.8896 28.4997 54.4246 28.5 53.9545V29.317ZM35.25 40C35.25 41.7902 35.9612 43.5071 37.227 44.773C38.4929 46.0388 40.2098 46.75 42 46.75C43.7902 46.75 45.5071 46.0388 46.773 44.773C48.0388 43.5071 48.75 41.7902 48.75 40C48.75 38.2098 48.0388 36.4929 46.773 35.227C45.5071 33.9612 43.7902 33.25 42 33.25C40.2098 33.25 38.4929 33.9612 37.227 35.227C35.9612 36.4929 35.25 38.2098 35.25 40ZM35.25 50.125C35.25 50.4234 35.3685 50.7095 35.5795 50.9205C35.7905 51.1315 36.0766 51.25 36.375 51.25H47.625C47.9234 51.25 48.2095 51.1315 48.4205 50.9205C48.6315 50.7095 48.75 50.4234 48.75 50.125C48.75 49.8266 48.6315 49.5405 48.4205 49.3295C48.2095 49.1185 47.9234 49 47.625 49H36.375C36.0766 49 35.7905 49.1185 35.5795 49.3295C35.3685 49.5405 35.25 49.8266 35.25 50.125Z" fill="#000341"/>
</svg>
