<svg width="84" height="84" viewBox="0 0 84 84" fill="none" xmlns="http://www.w3.org/2000/svg">
<circle cx="42" cy="42" r="42" fill="#DBEAFF"/>
<path d="M25.8438 38.25V44.75C25.8438 49.3471 25.8437 51.6449 27.2721 53.0733C27.6247 53.4259 28.031 53.6908 28.512 53.8923C28.5011 53.8198 28.4908 53.7472 28.4811 53.6745C28.2812 52.1828 28.2812 50.3221 28.2812 48.1609V34.8408C28.2812 32.6795 28.2812 30.8172 28.4811 29.3271L28.5136 29.1094C28.0493 29.2968 27.6272 29.5753 27.2721 29.9284C25.8437 31.3568 25.8438 33.6545 25.8438 38.25ZM58.3438 38.25V44.75C58.3438 49.3471 58.3438 51.6449 56.9154 53.0733C56.5627 53.4259 56.1565 53.6908 55.6755 53.8923L55.7064 53.6745C55.9063 52.1828 55.9062 50.3221 55.9062 48.1609V34.8408C55.9062 32.6795 55.9063 30.8172 55.7064 29.3271C55.6961 29.2545 55.6853 29.1819 55.6739 29.1094C56.1565 29.3093 56.5627 29.5758 56.9154 29.9284C58.3438 31.3568 58.3438 33.6545 58.3438 38.25Z" fill="#000341"/>
<path fill-rule="evenodd" clip-rule="evenodd" d="M32.1471 26.6784C30.7188 28.1051 30.7188 30.4045 30.7188 35V48C30.7188 52.5955 30.7188 54.8949 32.1471 56.3216C33.5739 57.75 35.8733 57.75 40.4688 57.75H43.7188C48.3143 57.75 50.6136 57.75 52.0404 56.3216C53.4688 54.8949 53.4688 52.5955 53.4688 48V35C53.4688 30.4045 53.4688 28.1051 52.0404 26.6784C50.6136 25.25 48.3143 25.25 43.7188 25.25H40.4688C35.8733 25.25 33.5739 25.25 32.1471 26.6784ZM36 49.625C36 49.3018 36.1284 48.9918 36.357 48.7632C36.5855 48.5347 36.8955 48.4062 37.2188 48.4062H42.0938C42.417 48.4062 42.727 48.5347 42.9555 48.7632C43.1841 48.9918 43.3125 49.3018 43.3125 49.625C43.3125 49.9482 43.1841 50.2582 42.9555 50.4868C42.727 50.7153 42.417 50.8438 42.0938 50.8438H37.2188C36.8955 50.8438 36.5855 50.7153 36.357 50.4868C36.1284 50.2582 36 49.9482 36 49.625ZM37.2188 41.9062C36.8955 41.9062 36.5855 42.0347 36.357 42.2632C36.1284 42.4918 36 42.8018 36 43.125C36 43.4482 36.1284 43.7582 36.357 43.9868C36.5855 44.2153 36.8955 44.3438 37.2188 44.3438H46.9688C47.292 44.3438 47.602 44.2153 47.8305 43.9868C48.0591 43.7582 48.1875 43.4482 48.1875 43.125C48.1875 42.8018 48.0591 42.4918 47.8305 42.2632C47.602 42.0347 47.292 41.9062 46.9688 41.9062H37.2188ZM36 36.625C36 36.3018 36.1284 35.9918 36.357 35.7632C36.5855 35.5347 36.8955 35.4062 37.2188 35.4062H46.9688C47.292 35.4062 47.602 35.5347 47.8305 35.7632C48.0591 35.9918 48.1875 36.3018 48.1875 36.625C48.1875 36.9482 48.0591 37.2582 47.8305 37.4868C47.602 37.7153 47.292 37.8438 46.9688 37.8438H37.2188C36.8955 37.8438 36.5855 37.7153 36.357 37.4868C36.1284 37.2582 36 36.9482 36 36.625Z" fill="#000341"/>
</svg>
