<svg width="84" height="84" viewBox="0 0 84 84" fill="none" xmlns="http://www.w3.org/2000/svg">
<circle cx="42" cy="42" r="42" fill="#DBEAFF"/>
<path d="M39.0837 49.1875L44.2087 50.8959C44.2087 50.8959 57.0212 48.3334 58.7295 48.3334C60.4378 48.3334 60.4378 50.0417 58.7295 51.75C57.0212 53.4584 51.042 58.5834 45.917 58.5834C40.792 58.5834 37.3753 56.0209 33.9587 56.0209H25.417" stroke="#000341" stroke-width="3.5" stroke-linecap="round" stroke-linejoin="round"/>
<path d="M25.417 45.7709C27.1253 44.0625 30.542 41.5 33.9587 41.5C37.3753 41.5 45.4899 44.9167 46.7712 46.625C48.0524 48.3334 44.2087 50.8959 44.2087 50.8959M35.667 36.375V29.5417C35.667 29.0886 35.847 28.6541 36.1674 28.3337C36.4877 28.0134 36.9222 27.8334 37.3753 27.8334H57.8753C58.3284 27.8334 58.7629 28.0134 59.0833 28.3337C59.4037 28.6541 59.5837 29.0886 59.5837 29.5417V43.2084" stroke="#000341" stroke-width="3.5" stroke-linecap="round" stroke-linejoin="round"/>
<path d="M43.3545 27.8334H51.8962V35.5209H43.3545V27.8334Z" fill="#000341" stroke="#000341" stroke-width="3.5" stroke-linecap="round" stroke-linejoin="round"/>
</svg>
