<svg width="36" height="36" viewBox="0 0 36 36" fill="none" xmlns="http://www.w3.org/2000/svg">
<circle cx="18" cy="18" r="18" fill="#190041"/>
<path d="M11.1 22.05C10.7333 21.4167 10.4583 20.7667 10.275 20.1C10.0917 19.4333 10 18.75 10 18.05C10 15.8167 10.775 13.9167 12.325 12.35C13.875 10.7833 15.7667 10 18 10H18.175L16.575 8.4L17.975 7L21.975 11L17.975 15L16.575 13.6L18.175 12H18C16.3333 12 14.9167 12.5877 13.75 13.763C12.5833 14.9383 12 16.3673 12 18.05C12 18.4833 12.05 18.9083 12.15 19.325C12.25 19.7417 12.4 20.15 12.6 20.55L11.1 22.05ZM18.025 29L14.025 25L18.025 21L19.425 22.4L17.825 24H18C19.6667 24 21.0833 23.4123 22.25 22.237C23.4167 21.0617 24 19.6327 24 17.95C24 17.5167 23.95 17.0917 23.85 16.675C23.75 16.2583 23.6 15.85 23.4 15.45L24.9 13.95C25.2667 14.5833 25.5417 15.2333 25.725 15.9C25.9083 16.5667 26 17.25 26 17.95C26 20.1833 25.225 22.0833 23.675 23.65C22.125 25.2167 20.2333 26 18 26H17.825L19.425 27.6L18.025 29Z" fill="white"/>
</svg>
