<svg width="36" height="36" viewBox="0 0 36 36" fill="none" xmlns="http://www.w3.org/2000/svg">
<circle cx="18" cy="18" r="18" fill="#190041"/>
<path d="M14.5385 12.56V11.8C14.5385 10.7922 14.9032 9.82563 15.5523 9.11299C16.2015 8.40036 17.0819 8 18 8C18.9181 8 19.7985 8.40036 20.4477 9.11299C21.0968 9.82563 21.4615 10.7922 21.4615 11.8V12.56M24.2308 12.56H11.7692C11.0348 12.56 10.3304 12.8803 9.81109 13.4504C9.29176 14.0205 9 14.7937 9 15.6V23.96C9 24.7663 9.29176 25.5395 9.81109 26.1096C10.3304 26.6797 11.0348 27 11.7692 27H24.2308C24.9652 27 25.6696 26.6797 26.1889 26.1096C26.7082 25.5395 27 24.7663 27 23.96V15.6C27 14.7937 26.7082 14.0205 26.1889 13.4504C25.6696 12.8803 24.9652 12.56 24.2308 12.56Z" stroke="white" stroke-width="1.5" stroke-linecap="round" stroke-linejoin="round"/>
<path d="M16 18.1818C16 17.7503 16.1173 17.3285 16.3371 16.9697C16.5568 16.6109 16.8692 16.3312 17.2346 16.1661C17.6001 16.0009 18.0022 15.9577 18.3902 16.0419C18.7781 16.1261 19.1345 16.3339 19.4142 16.639C19.6939 16.9442 19.8844 17.3329 19.9616 17.7562C20.0387 18.1794 19.9991 18.6181 19.8478 19.0168C19.6964 19.4154 19.44 19.7562 19.1111 19.9959C18.7822 20.2357 18.3956 20.3636 18 20.3636V21.0909M18.0027 24C17.9143 24 17.8295 23.9617 17.767 23.8935C17.7045 23.8253 17.6693 23.7328 17.6693 23.6364C17.6693 23.5399 17.7045 23.4474 17.767 23.3792C17.8295 23.311 17.9143 23.2727 18.0027 23.2727C18.0911 23.2727 18.1759 23.311 18.2384 23.3792C18.3009 23.4474 18.336 23.5399 18.336 23.6364C18.336 23.7328 18.3009 23.8253 18.2384 23.8935C18.1759 23.9617 18.0911 24 18.0027 24Z" stroke="white" stroke-width="1.5" stroke-linecap="round" stroke-linejoin="round"/>
</svg>
