<svg width="36" height="36" viewBox="0 0 36 36" fill="none" xmlns="http://www.w3.org/2000/svg">
<circle cx="18" cy="18" r="18" fill="#190041"/>
<path d="M17 14C18.1046 14 19 13.1046 19 12C19 10.8954 18.1046 10 17 10C15.8954 10 15 10.8954 15 12C15 13.1046 15.8954 14 17 14Z" fill="white"/>
<path d="M19.3966 15H15.6034C15.4562 15 15.311 15.0329 15.1794 15.096C15.0477 15.1591 14.9332 15.2507 14.8448 15.3636L12 19L13.5172 20.0909L14.6552 18.6364V25H16.5517V21.3636H18.4483V25H20.3448V18.6364L21.4828 20.0909L23 19L20.1552 15.3636C20.0668 15.2507 19.9523 15.1591 19.8206 15.096C19.689 15.0329 19.5438 15 19.3966 15Z" fill="white"/>
</svg>
