<svg width="36" height="36" viewBox="0 0 36 36" fill="none" xmlns="http://www.w3.org/2000/svg">
<circle cx="18" cy="18" r="18" fill="#190041"/>
<path d="M10.5 12.7917C10.5 12.1839 10.7414 11.601 11.1712 11.1712C11.601 10.7414 12.1839 10.5 12.7917 10.5H23.2083C23.8161 10.5 24.399 10.7414 24.8288 11.1712C25.2586 11.601 25.5 12.1839 25.5 12.7917V18.0183C24.9883 17.6904 24.4248 17.4515 23.8333 17.3117V12.7917C23.8333 12.6259 23.7675 12.4669 23.6503 12.3497C23.5331 12.2325 23.3741 12.1667 23.2083 12.1667H12.7917C12.6259 12.1667 12.4669 12.2325 12.3497 12.3497C12.2325 12.4669 12.1667 12.6259 12.1667 12.7917V23.2083C12.1667 23.5533 12.4467 23.8333 12.7917 23.8333H17.3117C17.4533 24.4333 17.695 24.9958 18.0183 25.5H12.7917C12.1839 25.5 11.601 25.2586 11.1712 24.8288C10.7414 24.399 10.5 23.8161 10.5 23.2083V12.7917ZM27.1667 22.5833C27.1667 21.3678 26.6838 20.202 25.8242 19.3424C24.9647 18.4829 23.7989 18 22.5833 18C21.3678 18 20.202 18.4829 19.3424 19.3424C18.4829 20.202 18 21.3678 18 22.5833C18 23.7989 18.4829 24.9647 19.3424 25.8242C20.202 26.6838 21.3678 27.1667 22.5833 27.1667C23.7989 27.1667 24.9647 26.6838 25.8242 25.8242C26.6838 24.9647 27.1667 23.7989 27.1667 22.5833ZM23 23L23.0008 25.0858C23.0008 25.1963 22.9569 25.3023 22.8788 25.3805C22.8007 25.4586 22.6947 25.5025 22.5842 25.5025C22.4737 25.5025 22.3677 25.4586 22.2895 25.3805C22.2114 25.3023 22.1675 25.1963 22.1675 25.0858V23H20.08C19.9695 23 19.8635 22.9561 19.7854 22.878C19.7072 22.7998 19.6633 22.6938 19.6633 22.5833C19.6633 22.4728 19.7072 22.3668 19.7854 22.2887C19.8635 22.2106 19.9695 22.1667 20.08 22.1667H22.1667V20.0833C22.1667 19.9728 22.2106 19.8668 22.2887 19.7887C22.3668 19.7106 22.4728 19.6667 22.5833 19.6667C22.6938 19.6667 22.7998 19.7106 22.878 19.7887C22.9561 19.8668 23 19.9728 23 20.0833V22.1667H25.0808C25.1913 22.1667 25.2973 22.2106 25.3755 22.2887C25.4536 22.3668 25.4975 22.4728 25.4975 22.5833C25.4975 22.6938 25.4536 22.7998 25.3755 22.878C25.2973 22.9561 25.1913 23 25.0808 23H23Z" fill="white"/>
</svg>
