<svg width="100" height="26" viewBox="0 0 100 26" fill="none" xmlns="http://www.w3.org/2000/svg">
<path d="M13 19.3019L18.5094 17.9057L20.8113 25L13 19.3019ZM25.6792 10.1321H15.9811L13 1L10.0189 10.1321H0.32074L8.1698 15.7925L5.18866 24.9245L13.0377 19.2641L17.8679 15.7925L25.6792 10.1321Z" fill="#219653"/>
<path d="M35.7808 6.625V18H33.4448V6.625H35.7808ZM39.2808 6.625V8.46094H29.9995V6.625H39.2808ZM42.1792 11.3906V18H39.9292V9.54688H42.0464L42.1792 11.3906ZM44.7261 9.49219L44.687 11.5781C44.5776 11.5625 44.4448 11.5495 44.2886 11.5391C44.1375 11.5234 43.9995 11.5156 43.8745 11.5156C43.5568 11.5156 43.2808 11.5573 43.0464 11.6406C42.8172 11.7188 42.6245 11.8359 42.4683 11.9922C42.3172 12.1484 42.2026 12.3385 42.1245 12.5625C42.0516 12.7865 42.0099 13.0417 41.9995 13.3281L41.5464 13.1875C41.5464 12.6406 41.6011 12.138 41.7104 11.6797C41.8198 11.2161 41.9787 10.8125 42.187 10.4688C42.4006 10.125 42.661 9.85938 42.9683 9.67188C43.2756 9.48438 43.6271 9.39062 44.0229 9.39062C44.1479 9.39062 44.2756 9.40104 44.4058 9.42188C44.536 9.4375 44.6427 9.46094 44.7261 9.49219ZM50.7886 15.9766V9.54688H53.0386V18H50.9214L50.7886 15.9766ZM51.0386 14.2422L51.7026 14.2266C51.7026 14.7891 51.6375 15.3125 51.5073 15.7969C51.3771 16.276 51.1818 16.6927 50.9214 17.0469C50.661 17.3958 50.3328 17.6693 49.937 17.8672C49.5412 18.0599 49.075 18.1562 48.5386 18.1562C48.1271 18.1562 47.7469 18.099 47.3979 17.9844C47.0542 17.8646 46.7573 17.6797 46.5073 17.4297C46.2625 17.1745 46.0698 16.849 45.9292 16.4531C45.7938 16.0521 45.7261 15.5703 45.7261 15.0078V9.54688H47.9761V15.0234C47.9761 15.2734 48.0047 15.4844 48.062 15.6562C48.1245 15.8281 48.2104 15.9688 48.3198 16.0781C48.4292 16.1875 48.5568 16.2656 48.7026 16.3125C48.8537 16.3594 49.0203 16.3828 49.2026 16.3828C49.6662 16.3828 50.0308 16.2891 50.2964 16.1016C50.5672 15.9141 50.7573 15.6589 50.8667 15.3359C50.9813 15.0078 51.0386 14.6432 51.0386 14.2422ZM59.3276 15.6641C59.3276 15.5026 59.2808 15.3568 59.187 15.2266C59.0933 15.0964 58.9188 14.9766 58.6636 14.8672C58.4136 14.7526 58.0516 14.6484 57.5776 14.5547C57.1506 14.4609 56.7521 14.3438 56.3823 14.2031C56.0177 14.0573 55.7 13.8828 55.4292 13.6797C55.1636 13.4766 54.9552 13.237 54.8042 12.9609C54.6532 12.6797 54.5776 12.3594 54.5776 12C54.5776 11.6458 54.6532 11.3125 54.8042 11C54.9604 10.6875 55.1818 10.4115 55.4683 10.1719C55.7599 9.92708 56.1141 9.73698 56.5308 9.60156C56.9526 9.46094 57.4266 9.39062 57.9526 9.39062C58.687 9.39062 59.3172 9.50781 59.8433 9.74219C60.3745 9.97656 60.7808 10.2995 61.062 10.7109C61.3485 11.1172 61.4917 11.5807 61.4917 12.1016H59.2417C59.2417 11.8828 59.1948 11.6875 59.1011 11.5156C59.0125 11.3385 58.8719 11.2005 58.6792 11.1016C58.4917 10.9974 58.2469 10.9453 57.9448 10.9453C57.6948 10.9453 57.4787 10.9896 57.2964 11.0781C57.1141 11.1615 56.9735 11.276 56.8745 11.4219C56.7808 11.5625 56.7339 11.7188 56.7339 11.8906C56.7339 12.0208 56.7599 12.138 56.812 12.2422C56.8693 12.3411 56.9604 12.4323 57.0854 12.5156C57.2104 12.599 57.3719 12.6771 57.5698 12.75C57.7729 12.8177 58.0229 12.8802 58.3198 12.9375C58.9292 13.0625 59.4735 13.2266 59.9526 13.4297C60.4318 13.6276 60.812 13.8984 61.0933 14.2422C61.3745 14.5807 61.5151 15.026 61.5151 15.5781C61.5151 15.9531 61.4318 16.2969 61.2651 16.6094C61.0985 16.9219 60.8589 17.1953 60.5464 17.4297C60.2339 17.6589 59.8589 17.8385 59.4214 17.9688C58.9891 18.0938 58.5021 18.1562 57.9604 18.1562C57.174 18.1562 56.5073 18.0156 55.9604 17.7344C55.4188 17.4531 55.0073 17.0964 54.7261 16.6641C54.45 16.2266 54.312 15.7786 54.312 15.3203H56.4448C56.4552 15.6276 56.5334 15.875 56.6792 16.0625C56.8302 16.25 57.0203 16.3854 57.2495 16.4688C57.4839 16.5521 57.7365 16.5938 58.0073 16.5938C58.299 16.5938 58.5412 16.5547 58.7339 16.4766C58.9266 16.3932 59.0724 16.2839 59.1714 16.1484C59.2756 16.0078 59.3276 15.8464 59.3276 15.6641ZM67.1167 9.54688V11.1406H62.1948V9.54688H67.1167ZM63.4136 7.46094H65.6636V15.4531C65.6636 15.6979 65.6948 15.8854 65.7573 16.0156C65.825 16.1458 65.924 16.237 66.0542 16.2891C66.1844 16.3359 66.3485 16.3594 66.5464 16.3594C66.687 16.3594 66.812 16.3542 66.9214 16.3438C67.036 16.3281 67.1323 16.3125 67.2104 16.2969L67.2183 17.9531C67.0256 18.0156 66.8172 18.0651 66.5933 18.1016C66.3693 18.138 66.1219 18.1562 65.8511 18.1562C65.3563 18.1562 64.924 18.0755 64.5542 17.9141C64.1896 17.7474 63.9084 17.4818 63.7104 17.1172C63.5125 16.7526 63.4136 16.2734 63.4136 15.6797V7.46094ZM70.6479 11.1719V21.25H68.3979V9.54688H70.4839L70.6479 11.1719ZM75.9995 13.6797V13.8438C75.9995 14.4583 75.9266 15.0286 75.7808 15.5547C75.6401 16.0807 75.4318 16.5391 75.1558 16.9297C74.8797 17.3151 74.536 17.6172 74.1245 17.8359C73.7183 18.0495 73.2495 18.1562 72.7183 18.1562C72.2026 18.1562 71.7547 18.0521 71.3745 17.8438C70.9943 17.6354 70.674 17.3438 70.4136 16.9688C70.1584 16.5885 69.9526 16.1484 69.7964 15.6484C69.6401 15.1484 69.5203 14.612 69.437 14.0391V13.6094C69.5203 12.9948 69.6401 12.4323 69.7964 11.9219C69.9526 11.4062 70.1584 10.9609 70.4136 10.5859C70.674 10.2057 70.9917 9.91146 71.3667 9.70312C71.7469 9.49479 72.1922 9.39062 72.7026 9.39062C73.2391 9.39062 73.7104 9.49219 74.1167 9.69531C74.5282 9.89844 74.8719 10.1901 75.1479 10.5703C75.4292 10.9505 75.6401 11.4036 75.7808 11.9297C75.9266 12.4557 75.9995 13.0391 75.9995 13.6797ZM73.7417 13.8438V13.6797C73.7417 13.3203 73.7104 12.9896 73.6479 12.6875C73.5907 12.3802 73.4969 12.112 73.3667 11.8828C73.2417 11.6536 73.075 11.4766 72.8667 11.3516C72.6636 11.2214 72.4162 11.1562 72.1245 11.1562C71.8172 11.1562 71.5542 11.2057 71.3354 11.3047C71.1219 11.4036 70.9474 11.5469 70.812 11.7344C70.6766 11.9219 70.575 12.1458 70.5073 12.4062C70.4396 12.6667 70.3979 12.9609 70.3823 13.2891V14.375C70.4084 14.7604 70.4813 15.1068 70.6011 15.4141C70.7209 15.7161 70.9058 15.9557 71.1558 16.1328C71.4058 16.3099 71.7339 16.3984 72.1401 16.3984C72.437 16.3984 72.687 16.3333 72.8901 16.2031C73.0933 16.0677 73.2573 15.8828 73.3823 15.6484C73.5125 15.4141 73.6037 15.1432 73.6558 14.8359C73.7131 14.5286 73.7417 14.1979 73.7417 13.8438ZM79.7729 9.54688V18H77.5151V9.54688H79.7729ZM77.3745 7.34375C77.3745 7.01562 77.4891 6.74479 77.7183 6.53125C77.9474 6.31771 78.2547 6.21094 78.6401 6.21094C79.0203 6.21094 79.325 6.31771 79.5542 6.53125C79.7886 6.74479 79.9058 7.01562 79.9058 7.34375C79.9058 7.67188 79.7886 7.94271 79.5542 8.15625C79.325 8.36979 79.0203 8.47656 78.6401 8.47656C78.2547 8.47656 77.9474 8.36979 77.7183 8.15625C77.4891 7.94271 77.3745 7.67188 77.3745 7.34375ZM84.0073 6V18H81.7495V6H84.0073ZM85.5073 13.8594V13.6953C85.5073 13.0755 85.5959 12.5052 85.7729 11.9844C85.95 11.4583 86.2078 11.0026 86.5464 10.6172C86.8849 10.2318 87.3016 9.93229 87.7964 9.71875C88.2912 9.5 88.8589 9.39062 89.4995 9.39062C90.1401 9.39062 90.7104 9.5 91.2104 9.71875C91.7104 9.93229 92.1297 10.2318 92.4683 10.6172C92.812 11.0026 93.0724 11.4583 93.2495 11.9844C93.4266 12.5052 93.5151 13.0755 93.5151 13.6953V13.8594C93.5151 14.474 93.4266 15.0443 93.2495 15.5703C93.0724 16.0911 92.812 16.5469 92.4683 16.9375C92.1297 17.3229 91.7131 17.6224 91.2183 17.8359C90.7235 18.0495 90.1558 18.1562 89.5151 18.1562C88.8745 18.1562 88.3042 18.0495 87.8042 17.8359C87.3094 17.6224 86.8901 17.3229 86.5464 16.9375C86.2078 16.5469 85.95 16.0911 85.7729 15.5703C85.5959 15.0443 85.5073 14.474 85.5073 13.8594ZM87.7573 13.6953V13.8594C87.7573 14.2135 87.7886 14.5443 87.8511 14.8516C87.9136 15.1589 88.0125 15.4297 88.1479 15.6641C88.2886 15.8932 88.4709 16.0729 88.6948 16.2031C88.9188 16.3333 89.1922 16.3984 89.5151 16.3984C89.8276 16.3984 90.0959 16.3333 90.3198 16.2031C90.5438 16.0729 90.7235 15.8932 90.8589 15.6641C90.9943 15.4297 91.0933 15.1589 91.1558 14.8516C91.2235 14.5443 91.2573 14.2135 91.2573 13.8594V13.6953C91.2573 13.3516 91.2235 13.0286 91.1558 12.7266C91.0933 12.4193 90.9917 12.1484 90.8511 11.9141C90.7157 11.6745 90.536 11.487 90.312 11.3516C90.0881 11.2161 89.8172 11.1484 89.4995 11.1484C89.1818 11.1484 88.911 11.2161 88.687 11.3516C88.4683 11.487 88.2886 11.6745 88.1479 11.9141C88.0125 12.1484 87.9136 12.4193 87.8511 12.7266C87.7886 13.0286 87.7573 13.3516 87.7573 13.6953ZM99.0386 9.54688V11.1406H94.1167V9.54688H99.0386ZM95.3354 7.46094H97.5854V15.4531C97.5854 15.6979 97.6167 15.8854 97.6792 16.0156C97.7469 16.1458 97.8459 16.237 97.9761 16.2891C98.1063 16.3359 98.2703 16.3594 98.4683 16.3594C98.6089 16.3594 98.7339 16.3542 98.8433 16.3438C98.9578 16.3281 99.0542 16.3125 99.1323 16.2969L99.1401 17.9531C98.9474 18.0156 98.7391 18.0651 98.5151 18.1016C98.2912 18.138 98.0438 18.1562 97.7729 18.1562C97.2782 18.1562 96.8459 18.0755 96.4761 17.9141C96.1115 17.7474 95.8302 17.4818 95.6323 17.1172C95.4344 16.7526 95.3354 16.2734 95.3354 15.6797V7.46094Z" fill="black"/>
</svg>
